<svg width="360" height="95" style="background-color:#fff" xmlns="http://www.w3.org/2000/svg"><defs><clipPath clipPathUnits="userSpaceOnUse" id="prefix__a"><path d="M147.585 44h317.064v130.222H147.585z"/></clipPath></defs><g clip-path="url(#prefix__a)" transform="matrix(1.33333 0 0 -1.33333 -238.748 224.59)" fill="#1C427D"><path d="M368.288 118.022c-3.777 0-6.39 3.207-6.39 7.055v.064c0 3.848 2.675 6.99 6.39 6.99 2.203 0 3.934-.962 5.634-2.533l3.084 3.623c-2.046 2.052-4.533 3.463-8.686 3.463-6.768 0-11.488-5.226-11.488-11.607v-.065c0-6.445 4.815-11.543 11.298-11.543 4.249 0 6.766 1.54 9.034 4.008l-3.085 3.174c-1.731-1.603-3.274-2.629-5.791-2.629m20.235 2.47l-5.759 15.808h-5.35l8.907-22.606h4.28l8.907 22.606h-5.225zm17.656 11.351h3.745c2.424 0 3.934-1.186 3.934-3.4v-.063c0-1.924-1.415-3.4-3.84-3.4h-3.84zm0-11.255h3.682c4.94 0 8.907 2.694 8.907 7.888v.065c0 4.585-3.18 7.759-8.434 7.759h-9.002v-22.446h4.847zm19.45 11.255h4.816c2.36 0 3.808-1.09 3.808-3.206v-.064c0-1.893-1.354-3.175-3.714-3.175h-4.91zm0-10.806h3.809l4.72-7.183h5.665l-5.382 8.017c2.8 1.058 4.722 3.335 4.722 6.958v.064c0 2.116-.661 3.88-1.89 5.13-1.447 1.476-3.618 2.277-6.42 2.277h-10.071v-22.446h4.847zM359.468 106c0-.77-.344-1.103-.896-1.103-.467 0-.839.247-1.22.666l-.924-1.027c.457-.543 1.143-1 2.182-1 .724 0 1.325.21 1.734.619.401.399.63.989.63 1.779v4.356h-1.506zm7.244.476c0-1.056-.543-1.598-1.438-1.598-.896 0-1.44.56-1.44 1.645v3.767h-1.467v-3.805c0-1.96 1.096-2.958 2.887-2.958 1.792 0 2.926.989 2.926 3.006v3.757h-1.468zm7.446-.286l-3.126 4.1h-1.353v-6.658h1.448v4.232l3.231-4.232h1.247v6.658h-1.447zm4.51.143h3.144v1.303h-3.144v1.35h3.573v1.304h-5.031v-6.658h5.079v1.303h-3.621zm7.216 3.433l.305-1.198 1.163.285v-5.222h1.449v6.706H387.8zm4.443-.741h3.135l-2.982-5.393h1.657l2.993 5.554v1.104h-4.803zm5.443-3.14h2.935v1.389h-2.935zm6.995-.152c1.182.913 1.754 1.465 1.754 2.578v.02c0 1.245-.915 2.053-2.297 2.053-1.19 0-1.829-.485-2.487-1.379l1.03-.827c.494.608.847.894 1.363.894.524 0 .895-.305.895-.866 0-.55-.324-.913-1.153-1.598l-2.22-1.816v-1.16h4.936v1.264h-2.907zm2.585 4.033l.306-1.198 1.162.285v-5.222h1.449v6.706h-1.001zm4.385-6.134h.591c.047-.542-.276-.875-.935-.942l.124-.6c1.134.02 1.764.524 1.764 1.78v1.284h-1.544zm8.579 2.101c1.181.913 1.753 1.465 1.753 2.578v.02c0 1.245-.915 2.053-2.296 2.053-1.192 0-1.83-.485-2.489-1.379l1.031-.827c.495.608.847.894 1.362.894.524 0 .896-.305.896-.866 0-.55-.325-.913-1.153-1.598l-2.22-1.816v-1.16h4.936v1.264h-2.907zm7.291 1.209c0-1.208-.562-2.102-1.448-2.102-.887 0-1.468.903-1.468 2.12v.02c0 1.216.571 2.101 1.45 2.101.875 0 1.466-.912 1.466-2.12zm-1.448 3.462c-1.773 0-2.974-1.512-2.974-3.443v-.02c0-1.93 1.173-3.423 2.956-3.423 1.78 0 2.972 1.511 2.972 3.442v.02c0 1.93-1.192 3.423-2.954 3.423m6.959-4.67c1.181.913 1.753 1.465 1.753 2.578v.02c0 1.245-.914 2.053-2.296 2.053-1.192 0-1.83-.485-2.488-1.379l1.03-.827c.495.608.847.894 1.363.894.523 0 .896-.305.896-.866 0-.55-.325-.913-1.154-1.598l-2.22-1.816v-1.16h4.936v1.264h-2.906zm6.006.524h-1.773l1.773 2.074zm1.4 4.08h-1.239l-3.658-4.232.237-1.037h3.26v-1.436h1.4v1.436h.896v1.189h-.896zM226.48 161.012v.344c-.119.058-.233.12-.359.172.126-.051.24-.114.36-.172zm-4.417-.378v.172zm1.615 1.272v-.275zm1.437.207c-.055.097-.256.052-.287.172-.04.742-.07 1.492-.112 2.232.042-.74.072-1.49.112-2.232.031-.12.232-.075.287-.172m94.681-45.325H318.7zm-.143-.768h-.953zm.143 1.535H318.7zm-8.526 3.597h-.76zm8.526-1.293H318.7zm-2.743-3.071h-.567zm-9.203 8.812v-1.375zm9.203-5.741h-1.098zm0-2.304h-1.098zm-5.447 10.268v.848zm-84.336 31.4c-.052-.019-.186.04-.179-.034.052.018.185-.04.18.034m66.809-38.519l-.922-4.163.075-.25.774.22s.085.029.232.075c.148.046.361.11.617.18l.227.868-.926 3.105a.9.9 0 00-.077-.035m1.227-3.819l-.081.269-.08-.31c.052.014.107.028.161.04m.047.756l.206-.693c.45.108.958.212 1.468.284l.254 1.01-.925 3.241zm-3.873 1.665c-.477-.298-.96-.62-1.447-.974l.211-.685.475-1.545zm9.309 2.745l-.035-.14h.082zm8.679-1.572l-.151.073-.641-2.963.114-.401a32.97 32.97 0 001.576-.336zm-16.579-3.946l-.913 3.076-.183-.112-.922-3.877 1.937.552zm.116.523l.776 3.507a23.05 23.05 0 01-1.573-.824zm13.707.452a32.895 32.895 0 001.628-.239l.068.312-1.083 3.797-.835-3.088zm-.297.035c.005 0 .01 0 .016-.002l-.016.063zm-5.785 3.884l-.59-2.302h.422v.455h1.098v-.455h.217l-.777 2.302zm7.637-2.406l.257-.9.552 2.548c-.463.216-.948.42-1.453.611zm-5.614 1.902h.343v-.485h-.456l-.309-1.313h.898v-1.413s.262.011.732.003l.233.958-1.107 3.673zm2.326-.942v-.485h-.416l-.198-.817.209-.694.09-.299c.291-.014.63-.039.99-.07v2.675l-.481 1.706-.492-2.016zm-.852-2.272l.262-.01-.146.482zm-15.594-2.753l.198.056.54 2.746a26.21 26.21 0 01-1.319-1.109zm15.218 5.755l.221-.73h.442l.513 2.11c-.543.122-1.106.228-1.685.31zm-2.844 1.8l.203-.6h.45v-.483h-.286l.726-2.15.272 1.16h-.374v.486h.488l.362 1.545c-.272.032-.546.06-.825.083 0 0-.092.005-.265.004a12.224 12.224 0 01-.748-.03zm-.444-.688v.089h.022l.152.59v.002a17.305 17.305 0 01-1.898-.277l1.034-3.1zm-2.914-3.576l.267-.933c.134.006.266.013.395.013v1.798h1.289l-.99 2.965zm9.533 3.228c-.164.057-.34.104-.513.155a6.92 6.92 0 00-.154.046v-2.672zm-1.428.43c-.069.018-.133.043-.2.061l.2-.715zm-1.506-2.507l.069-.227.078.325h-.177zm-6.741-.65l.844 3.376c-.52-.117-1.08-.267-1.677-.455zm-.102-1.481c.082.01.164.02.247.027l-.13.447zm-9.563-.806a20.55 20.55 0 01-.376-.353l-.292-1.567 1.21.345zm7.28 2.285l.188-.626.883 3.388a22.418 22.418 0 01-1.697-.664zm-7.982-2.964l.003.015-.003-.003zm41.888 6.059l-.823-3.55.127-.44c.464.078.95.15 1.463.215l.181.837-.789 3.02a12.004 12.004 0 01-.159-.082m1.093-3.495l-.053-.247c.037.006.076.008.113.014l-.047.185zm1.126 4.467c-.057-.02-.115-.04-.172-.063l-.83-3.84.198-.77c.451.046.92.087 1.404.12l.325 1.378zm1.073-3.682l-.2-.855c.145.01.292.018.441.024l-.054.187zm-8.575-2.471c.117.044.244.088.371.132v1.493a25.955 25.955 0 01-.673-.661l.072-.23zm4.979 5.02a19.61 19.61 0 01-1.285-.762l.617-2.117zm-1.776-1.089l-.301-1.395v-1.684c.37.084.754.168 1.167.246l.122.526-.513 1.76-.211.723-.264-.177m11.4-2.416c.225-.018.452-.04.68-.062l-.407 1.414zm-15.049-.962l-.062.201a28.942 28.942 0 01-.573-.617l-.01-.579c.235.106.517.224.846.352zm14.132 6.391l-.795-3.512.482-1.826c.022 0 .046-.003.068-.004a50.1 50.1 0 00.9-.063l.378 1.87-1.018 3.531-.015.004m1.916-.472l-.615-3.052.129-.448.447-1.55.018-.004.11-.015v5.041c-.03.01-.06.02-.09.027m-3.115-4.821c.201-.009.407-.018.614-.029l-.335 1.262zm-2.128.035c.214.003.436.001.654 0l-.345 1.243zm1.089 4.387h.318V122h-.499l-.22-.889h.72v-.728h-.76v.566l-.212-.852.49-1.757c.306-.004.62-.01.938-.022l.4 1.766-.945 3.571zm-.923-2.635l-.08.289h-.747v.728h.544l-.248.889h-.297v.728h.093l-.19.682-.019-.004-.885-3.763.276-.945.113-.389c.328.013.662.023 1.004.028zm1.407 3.616l.815-3.08.684 3.024a1.269 1.269 0 01-.046.01s-.533.083-1.453.046m-20.827-8.241l.417.973c-.387.378-.838.79-1.354 1.218l.508-2.024c.143-.054.286-.11.43-.167m-1.943.697c.4-.129.807-.268 1.218-.42l-.55 2.19c-.025.02-.053.04-.077.06zm2.726-.093c-.055.058-.109.115-.17.174l-.372-.873c.256-.105.512-.214.77-.326l-.177.797zm-2.744 1.48h-.617l.303-1.282a2.33 2.33 0 00.065-.02l.02-.006.619 1.921c-.125.096-.26.193-.39.289zm-1.317 1.806l-.203-.634v-1.172h-.375l-.245-.763.002-.01a31.45 31.45 0 001.536-.42l-.71 2.995-.005.003m4.733-4.512c.195-.123.43-.226.655-.306 0 0-.079.112-.235.306zm-4.086 4.081c-.11.075-.213.15-.326.223l.18-.759.056-.233v.77zm21.983 3.802V122h-.194l.389-1.395.353 1.423v.7h.174l.237.951c-.456-.038-.98-.104-1.56-.217l.16-.574.044-.16zm-1.909-2.58l.752 3.195a16.412 16.412 0 01-1.553-.447zm-2.196-.685l.688 3.174a17.3 17.3 0 01-1.36-.6zm-13.708-4.213c-.084.145-.206.233-.324.363h-.01v.013a5.153 5.153 0 01-.073.079l.101-.455zm6.01 1.244c-.205-.23-.407-.468-.61-.712 0 0 .201.121.602.31zm16.695 6.704a21.2 21.2 0 01-1.363.34l.843-2.92zm-28.485-3.422v.154c-.24.134-.484.266-.736.396l.757-3.056.09.282h-.111v1.375h.552l.184.57c-.154.095-.314.187-.473.279zm-20.699-1.606c-.075-.055-.152-.118-.227-.174l-.57-2.907 1.572.448.015.063-.547 1.78z"/><path d="M315.966 115.615l-.011.013v-.013zm-15.502 6.207l.022.089h-.022zm-73.66 38.708c-.497.29-1.323.38-2.12.413-.661.027-1.172-.047-1.688-.138-.318-.056-.68-.073-.861-.275.177-.169.562-.292.61-.619.047-.323-.118-.524-.467-.619 1.335.1 3.074.112 4.633 0-.181.158-.727.198-.754.516-.03.335.46.46.647.722"/><path d="M218.327 155.92c-.038.11-.257.289-.169.512.127.323.857.592 1.355.727 1.563.426 3.231.448 5.171.448 1.833 0 3.627-.066 5.136-.448.442-.111 1.182-.328 1.221-.653.035-.283-.162-.403-.359-.585.672.128 1.352.253 1.687.62.08.11.103.178.106.272 0 .046-.03.132-.078.2-.426.455-.789.528-1.32.73-.07.094-.021.302-.036.449-.253.27-.694.405-1.149.55-.41.13-.987.3-1.428.34-.003 0-.005.003-.009.004l.002-.003c-.061 0-.13.01-.181.003.348-.062.239-.554.151-.835-.111.023-.17.024-.259.044.04.337.17.89-.215.825.272-.026.225-.352.123-.795-.2.018-.265.032-.265.032.012.235.181.645-.041.77a.21.21 0 01-.069.027c.182-.185.083-.546.017-.795l-.248.032c.023.265.126.61-.05.769a.28.28 0 01-.042.029c.12-.201.049-.587.003-.795-.217.03-.326.03-.326.03 0 .248.147.667-.023.77a.453.453 0 01-.049.029c.102-.15.028-.442-.02-.795-.152.023-.137.01-.301.03.021.262.053.629-.002.765.042.006.16-.011.166.029-.072 0-.203.006-.274.006.108-.035.043-.55.023-.801-.122.01-.211.005-.381.014.013.43.047.744.047.777 0 .02-.047.003-.065.004-.026-.006-.054-.56-.068-.784-.248.017-.328-.001-.681.015-.006.246.021.693.012.792h-.086c-.012-.355-.006-.39-.024-.792-.239 0-.513-.016-.753-.016.005.257.018.428.036.79.043.006.114-.01.108.035-.151-.017-.565.038-.539-.034.128.017.31-.006.31-.006.022-.057-.015-.636-.015-.775-.228 0-.456-.01-.683-.01 0 .26-.025.619-.015.792-.957.017-1.596-.08-2.506-.173-.071-.076-.002-.04.143-.03.223.019.273.026.515.054.022-.295.045-.388.06-.747-.256-.021-.37-.043-.663-.078-.027.249-.04.54-.091.766-.063-.02-.211.042-.215-.034.236.029.165-.47.215-.757-.226-.034-.443-.084-.636-.1-.092.804-.047.728-.145.716.019-.154.041-.463.063-.73-.198-.034-.326-.064-.503-.092-.028.244-.061.44-.075.697.149.054.252.085.442.127.247.066.639.139.521.183-.932-.22-2.033-.552-2.827-.904-.027-.22.041-.35.035-.55-.511-.198-1.138-.286-1.365-.757v-.138c.275-.505.998-.581 1.581-.791"/><path d="M227.27 157.259c-1.309.082-2.7.16-4.454.057-.505-.03-.999-.052-1.939-.157-.969-.107-2.96-.438-2.186-1.386 3.188 1.162 8.205 1.112 11.408.198.404 0 .738.164.655.397-.287.59-2.322.818-3.484.89m-5.207 3.376v.172c.14.065.292.12.454.168.487.144 1.065.214 1.66.228a11.39 11.39 0 002.304-.19v.344c-.12.059-.233.12-.36.172a1.384 1.384 0 01-.431.103c-.03.087.07.296-.071.276h-.18c-.09-.052.024-.298-.144-.276l-.18.482c-.055.097-.257.053-.288.172-.039.742-.07 1.492-.11 2.232-.042.74-.094 1.47-.177 2.17h-.035a290.491 290.491 0 01-.144-4.54c-.106-.024-.222-.04-.287-.103v-.413h-.396v.276a3.788 3.788 0 01-.388-.007 1.282 1.282 0 01-.33-.062c.101-.452-.306-.418-.323-.757a1.36 1.36 0 01-.61-.206c.01-.036-.002-.093-.005-.142-.004-.05 0-.092.04-.1zm4.058-1.342c-.18-.022-.454.045-.575-.034.18.022.454-.045.575.034m119.599-52.963h1.773l-.886 2.16zm-46.767 0h1.775l-.887 2.16zm-33.305 7.099l-.771.293c.103-.34.202-.757.289-1.172zm-.644-2.172c.026-.7.01-1.363.01-1.363v-8.873h.672l.018 4.372c.011.131.156 1.644.59 3.275a14.437 14.437 0 01-1.29 2.59m.328 2.794c-.105.079-.174.087-.196.088l-.05-.026-.037.023a.392.392 0 01-.205-.021l.677-.256a1.143 1.143 0 01-.19.192m-4.424-.291c.264-.126.527-.256.779-.381-.042.163-.083.319-.126.469-.208.059-.42.112-.626.157-.01-.08-.017-.161-.027-.244m2.725-.757l-.096.242c-.123.143-.246.286-.365.417-.031-.014-.061-.03-.091-.045l.526-.679.026.065m-2.619 2.186c-.03-.225-.063-.504-.1-.827.155-.033.31-.07.468-.111a15.57 15.57 0 01-.318.92zm2.562-.974v-.001h.002zm-.512.084c-.022.044-.042.091-.065.136l-.108.041c.056-.056.116-.119.173-.178m2.186-2.363c.209-.197.431-.43.651-.699.272-.332.556-.745.809-1.239-.248 1.575-.534 2.551-.792 3.154zm-1.966 3.112a6.886 6.886 0 01-.364.493c-.039.05-.078.094-.117.14.107-.178.206-.368.309-.555l.172-.078m7.764-2.487c.037.318.071.595.103.818l-.019.008.031.075.028.176a4.973 4.973 0 01-1.367-.906c.277-.026.723-.078 1.224-.17m.198-1.378a6.92 6.92 0 00.307-.564.472.472 0 01.033-.022c.145.219.304.422.475.61-.254.128-.516.258-.775.384-.012-.133-.026-.268-.04-.408m-4.425-2.472c-.025.085-.051.17-.08.25-.022-.077-.052-.155-.073-.233a5.51 5.51 0 00.07-.205c.027.062.057.126.083.188m5.71 4.518l.044-.04.279-.105-.322.145m-3.053-.835l-.026-.028.66-1.196c.246-.04.505-.107.767-.21l.015.154c-.396.625-.788.969-1.1 1.157a6.6 6.6 0 01-.316.123m2.462.685c.081-.228.17-.497.26-.8.186-.059.368-.125.538-.199l-.762.984zm-5.414-5.093l-.022.07c-.026-.113-.06-.231-.083-.34l.105.27m-.908 3.018l-.101.12c.345-.578.661-1.21.942-1.883.024.081.05.161.076.241a6.802 6.802 0 01-.917 1.522m2.332.63l.037-.635c.353.567.722 1.061 1.106 1.482-.437-.122-.816-.427-1.143-.847m.517-.525c.218.054.671.14 1.232.105l-.489.886a10.116 10.116 0 01-.743-.99m-9.069 1.27l-.058-.168c.009.076.022.165.034.247l-.033.058c-.001-.046.058-.09.057-.137m2.468.216a4.897 4.897 0 01-.375-.508 4.64 4.64 0 00.561-.534c-.054.366-.118.714-.186 1.042m-1.353.955c-.063.03-.182.06-.245.088.057-.068.116-.14.173-.218.004.044.068.087.072.13m1.011-3.242c-.122.427-.251.808-.385 1.15-.296-.614-.512-1.327-.647-2.136a19.054 19.054 0 00-.022-.248l.019-.017-.022-.02a416.29 416.29 0 01-.143-1.696c-.006-.34 0-.69.014-1.053.1.616.257 1.391.49 2.186.204.692.436 1.301.696 1.834m-1.081 2.555a4.775 4.775 0 01-.427.575c-.033-.2-.064-.395-.093-.586.166-.04.333-.089.504-.155.005.056.012.111.016.166m1.921.695a4.952 4.952 0 01-.384.152c.034-.123.067-.25.099-.383.095.083.19.16.285.23m-.654-2.783c.076.138.157.268.24.392l-.067-.05a4.57 4.57 0 01-.479.52c.114-.29.21-.564.305-.862m-.13 4.222c.088-.247.185-.538.283-.868.202-.064.398-.135.584-.215l-.828 1.068zm.28-4.726c.117-.42.227-.88.328-1.383a17.83 17.83 0 01-.088 1.82 7.362 7.362 0 01-.24-.437m.302 4.888a.901.901 0 00.048-.042l.361-.114c-.115.051-.29.104-.409.156m.061-2.453a18.4 18.4 0 00.185-1.01c.195.228.4.427.616.594-.24.127-.512.268-.801.416m11.36-1.911c.034.021.069.043.105.062l-.604.78a1.582 1.582 0 01-.068-.044l-.01-.015a.016.016 0 00-.007.004 3.582 3.582 0 01-.375-.29c.465-.237.824-.426.959-.497m-13.886-2.406c.089-.496.164-.984.223-1.427l.034.409c.009.562.046 1.09.112 1.59l-.372.357zm-.344 4.87l.11-.199c.036.243.078.497.122.761a3.027 3.027 0 01-.252.201c.01-.26.02-.498.02-.764m.334-2.263l.004-1.172.436-.417c.045.51.09 1.033.137 1.549l-.553.274-.024-.234m.825 3.082c-.15.028-.29.051-.429.072l-.006-.027.42-.194.015.15m2.964-1.492l-.656.847a3.15 3.15 0 01-.074-.049l-.011-.017-.008.005a4.427 4.427 0 01-.407-.315c.505-.257.896-.462 1.041-.539.038.024.076.047.115.068m-.575-2.277c.134.681.276 1.282.427 1.8a4.007 4.007 0 01-.91-.919c.11-.882.168-1.856.13-2.898v-.143c.078.584.195 1.36.352 2.16m-.044 3.599l.056.029c-.125.132-.25.256-.37.374zm-2.522-1.573a3.47 3.47 0 01-.519.173c-.003-.023-.006-.046.049-.07l.46-.832c-.036.247-.012.49.01.729m-.579-.726l.145-.102-.177.32c-.009-.075.04-.148.032-.219m.054 3.121c.025.128.052.25.077.373a6.253 6.253 0 01-.535-.424l.004-.066c.121-.012.262-.028.423-.048l.031.165m12.444-6.005c.108-.387.209-.81.302-1.273 0 .587-.028 1.148-.081 1.676a6.786 6.786 0 01-.221-.403m.918 3.351l.051.027c-.116.121-.229.235-.339.344zm-6.044-2.357l.036-.242.1.209zm-.222-1.702c.028-.089.06-.174.086-.264l-.04.382-.046-.118m-2.529 4.177l-.002.001c.048-.149.102-.292.146-.444-.009.096-.02.184-.029.278-.039.054-.077.112-.115.165m1.669-6.834l-.017-4.34h1.016v4.658a13.247 13.247 0 01-.354 1.767 21.681 21.681 0 01-.645-2.085m2.716 4.973l.013.024c-.142.198-.294.341-.458.408l-.054.022a16.084 16.084 0 01-1.017-1.957l.048-.396c.164-.669.122-2.275.122-2.275v-5.139h2.85v2.823c-.109 1.508-.56 5.141-1.461 6.468zm6.615-.073a6.586 6.586 0 001.347-1.786c-.23 1.451-.493 2.35-.731 2.905zm-3.902 2.998a41.597 41.597 0 01-.092-.763c.143-.03.287-.064.43-.102a14.37 14.37 0 01-.292.848zm-7.673-.882c-.548-1.687-.893-4.13-1.006-5.27l.023-6.085h1.762v8.311a15.115 15.115 0 01-.723 3.067c-.019-.008-.038-.014-.057-.023m7.521-.436c.244-.117.487-.237.719-.352-.04.15-.078.294-.117.431a8.703 8.703 0 01-.577.146 40.22 40.22 0 01-.024-.225m-25.892 2.068l-.011.024c-.146.205-.303.352-.472.422l-.056.023c-1.499-2.425-2.228-5.356-2.288-5.604l-.031-7.852h4.387v6.285c-.111 1.556-.578 5.308-1.507 6.679zm2.621 1.658c.25-.12.502-.244.74-.364-.04.156-.08.305-.12.447a10.6 10.6 0 01-.595.15 15.157 15.157 0 01-.025-.233m27.573-6.154a13.34 13.34 0 001.357-3.106l-.06.576a6.22 6.22 0 01-1.205 2.42c-.03.038-.061.074-.092.11m-18.013 10.909a47.865 47.865 0 01-.117-.965 11.9 11.9 0 00.544-.129c-.133.427-.262.788-.37 1.072zm-14.62-9.116a21.657 21.657 0 00.869 2.033l-.284.07a17.007 17.007 0 01-.584-2.103m18.202.998c.157.239.33.46.517.663-.276.139-.562.28-.841.416l-.045-.442c.112-.185.224-.388.334-.613l.035-.024m-16.908 1.847l-.042.72a7.859 7.859 0 01-.549-1.142l.322-.077c.088.17.178.337.27.499m13.132 4.604c.306-.148.614-.299.908-.446a20.8 20.8 0 01-.148.547c-.241.07-.488.13-.73.183l-.03-.284m-9.212-1.727c-.029-.215-.06-.48-.094-.788a9.78 9.78 0 00.444-.105c-.109.349-.214.643-.303.875zm3.424-1.823c-.054-.181-.117-.358-.166-.54.043-.054.085-.105.127-.162.043.103.09.208.135.312-.031.136-.063.266-.095.39m-.948-4.774l-.037-9.409h3.297v6.956c-.29 2.3-1.194 4.217-2.208 5.722a28.12 28.12 0 01-1.052-3.27m16.992.042l-.04.698a7.37 7.37 0 01-.532-1.107l.311-.075c.086.167.173.328.261.484m3.311-6.628v-2.823h1.48v4.859c-.12.906-.27 1.69-.438 2.365-.831-1.941-1.031-4.267-1.042-4.401m1.128 5.347c.071.126.146.246.222.36l-.062-.045a3.95 3.95 0 01-.442.478c.097-.243.191-.506.282-.793m3.184 1.633l.445.81-.71.27c.093-.313.184-.698.265-1.08m-4.985-.018l.47-.85.063.672a3.3 3.3 0 01-.533.178m-1.528.041c.082-.076.162-.17.241-.276l1.42-.706-.562 1.018a3.759 3.759 0 01-1.099-.036m1.391-3.681c.095-.517.174-1.028.234-1.489.01.122.022.248.032.378.009.517.044 1.005.103 1.465l-.553.53c.064-.277.126-.57.184-.884m3.894 4.5c.095.191.193.354.293.487a3.613 3.613 0 01-.58-.163 16.4 16.4 0 00.287-.325m-.53.587c.101.041.2.077.294.108l-.633.24c.11-.109.223-.227.34-.348m-.164-.442l.485-.625.057.143c-.155.185-.309.359-.459.523l-.083-.041m1.62-1.22a15.47 15.47 0 01-.345 1.39 2.945 2.945 0 01-.342-.6c.166-.204.334-.42.501-.645.06-.044.121-.092.186-.145m-5.16-1.929l.763-.732.127 1.427-1.392.691c.182-.369.348-.83.502-1.386m2.368 2.208a4.535 4.535 0 01-.347-.468c.176-.142.35-.304.518-.493-.05.339-.108.659-.17.96m-1.196 1.366c-.17.032-.335.059-.489.082.154-.07.313-.143.474-.22.004.047.01.093.015.138m3.206-1.497a3.804 3.804 0 01-.176-.07c-.504-1.556-.822-3.807-.926-4.857l.018-4.789h3.896v3.473c-.312 2.467-1.35 4.486-2.458 6.003a4.933 4.933 0 01-.354.24m1.054 1.552l-.046-.023-.033.02a.347.347 0 01-.188-.018l.622-.236a1.08 1.08 0 01-.174.177c-.096.073-.16.08-.18.08m-4.313-.54a6.659 6.659 0 01-.172.08 4.41 4.41 0 00.16-.2l.012.12m.932-2.987a12.24 12.24 0 01-.356 1.06c-.273-.566-.47-1.223-.596-1.968l-.019-.229.017-.016-.02-.02c-.046-.521-.09-1.046-.133-1.561-.004-.313 0-.635.014-.97.093.568.236 1.282.452 2.015.186.636.4 1.198.64 1.689m.643 2.207c.063-.293.12-.603.17-.93.18.211.369.394.568.548-.222.116-.471.246-.738.382m.13.787c-.11.05-.23.097-.353.14.032-.113.061-.23.091-.352.088.076.175.147.262.212m.548-2.995c.123.628.255 1.181.395 1.657a3.654 3.654 0 01-.839-.843c.102-.814.155-1.711.12-2.671v-.134c.072.54.18 1.254.324 1.99m-2.108.928c.08.19.166.371.261.543a9.185 9.185 0 01-.078.17 2.13 2.13 0 01-.11.064c-.024-.25-.049-.51-.073-.777m-23.427 5.781a7.082 7.082 0 01-.177.084 4.2 4.2 0 00.165-.208l.012.124m1.991-5.14c.074.556.186 1.293.335 2.054.128.65.264 1.221.408 1.713l-.01-.007c-.55-.388-.823-1.042-.773-1.695.047-.608.065-1.253.04-1.928zm2.542 5.542l.015.033-.275.065zm-3.571-3.486c-.116.406-.24.77-.367 1.094-.281-.585-.486-1.263-.615-2.032l-.021-.237-.005-.018.003-.018-.138-1.612c-.004-.324 0-.657.015-1.002.096.587.244 1.323.466 2.08.194.658.415 1.238.662 1.745m3.321 2.962l.102.214-.178.069c.026-.087.051-.189.076-.284m-4.228.623a12.41 12.41 0 01-.506.085c.16-.072.323-.148.49-.227.004.05.01.096.015.142m1.571-1.305c.065-.303.124-.624.176-.96.186.216.38.407.586.565-.228.12-.486.254-.761.395m.134.813c-.116.052-.239.1-.365.145.032-.117.063-.24.094-.364.091.079.181.15.271.219m-.472-.917a4.77 4.77 0 01-.358-.484c.182-.145.36-.313.535-.507-.052.348-.112.679-.177.99m.048-2.211c.111-.399.216-.836.312-1.315.002.607-.03 1.186-.084 1.731a6.909 6.909 0 01-.228-.416m3.481.812a13.728 13.728 0 001.4-3.208c-.02.206-.04.403-.061.595a6.414 6.414 0 01-1.243 2.499l-.096.114m2.594 6.171a1.124 1.124 0 00-.034-.036l.836-1.514a4.86 4.86 0 00.97-.263l.02.193c-.502.791-.997 1.226-1.392 1.464-.146.06-.28.112-.4.156m-1.279-1.626c.276.068.85.176 1.56.133l-.618 1.12c-.337-.39-.651-.812-.942-1.253m-1.726-1.326l.068-.016a.58.58 0 00.316-.076l.01-.002c.108.21.218.414.33.611l-.052.884a9.67 9.67 0 01-.672-1.4m4.99 3.161c.047.402.09.753.13 1.036l-.023.009.04.095c.011.08.023.154.034.222-.624-.268-1.2-.663-1.73-1.145a18.49 18.49 0 001.55-.216m-3.919-1.173l.047-.804c.446.718.913 1.344 1.399 1.877-.553-.155-1.032-.542-1.446-1.073m3.988-2.464c.101.24.211.47.33.687-.032.073-.066.144-.098.213a2.886 2.886 0 01-.14.083l-.092-.983m-4.904-1.974a6.806 6.806 0 001.39-1.844c-.237 1.5-.51 2.428-.755 3.002z"/><path d="M254.174 116.694l-.056.028.016.03c-.179.25-.372.43-.579.517l-.068.028a18.73 18.73 0 01-.732-1.308c.094-.113.19-.255.287-.437l.07-.026-.029-.053c.4-.794.806-2.252 1.097-4.873.156-.637.116-2.164.116-2.164v-7.415h.433l.022 5.634c.015.17.237 2.494.96 4.61-.298 2.018-.797 4.338-1.537 5.429m6.636-4.605c-.04.024-.08.048-.12.07-.026-.272-.053-.554-.079-.843.087.206.24.403.342.59-.028.062-.114.123-.143.183m-11.942.739c.075.13.102.173.18.292l-.014.033c-.148.187-.3.35-.456.493.1-.251.197-.523.29-.818m8.452 4.969c.132-.215.261-.453.39-.715l.041-.028a6 6 0 00.602.773c-.323.162-.654.326-.98.485l-.053-.515m-9.349-2.911a7.39 7.39 0 00.318-.584l.033-.022c.15.227.314.437.492.63-.264.133-.534.266-.801.396a74.59 74.59 0 01-.042-.42m-.147-1.546c.082.196.172.384.27.56l-.08.176-.115.068-.075-.803m1.501 3.646a.272.272 0 01-.025.01.531.531 0 00.044-.04l.289-.108-.308.138m-1.765-2.676c-.187.08-.37.14-.55.184l.484-.878.066.694m1.129 2.532c.084-.235.176-.512.27-.826.19-.06.378-.128.555-.204l-.787 1.016zm-4.119-1.491l.038-.656a10.36 10.36 0 001.143 1.53c-.453-.125-.843-.44-1.181-.874"/><path d="M348.629 103.542l-.611 1.493h-2.823l-.611-1.493h-1.498l2.862 6.706h1.354l2.862-6.706zm-8.757-.048l-1.507 4.357-1.506-4.357h-1.279l-2.279 6.707h1.574l1.382-4.51 1.499 4.529h1.258l1.499-4.528 1.382 4.509h1.536l-2.28-6.707zm-7.255 15.205l-.276.945.886 3.763a.106.106 0 00.019.004l.19-.682.203-.727.248-.89.203-.727.081-.29-.436-1.756a35.552 35.552 0 01-1.004-.03zm-.597-.423l.2.854h.001l.187-.643.054-.187c-.148-.006-.296-.016-.442-.024m-1.675-.137l-.2.769.832 3.84c.057.023.114.044.171.064l.925-3.175-.324-1.378a38.89 38.89 0 01-1.404-.12m-.376-.041l.053.247.013-.048.048-.185c-.037-.006-.077-.01-.114-.014m-.092.804l-.181-.837a34.733 34.733 0 01-1.463-.215l-.127.439.823 3.55c.053.029.106.056.159.083zm-.316-15.122c0-1.256-.629-1.76-1.763-1.78l-.125.6c.658.067.982.4.935.942h-.592v1.522h1.545zm-2.641-.238h-5.084v6.659h5.036v-1.303h-3.577v-1.351h3.147v-1.304h-3.147v-1.398h3.625zm-5.229 12.243c.202.244.405.48.608.71l-.007-.4c-.401-.19-.601-.31-.601-.31m-.961-12.243h-4.798v6.659h1.468v-5.327h3.33zm-4.524 11.305l-.148.069-.074.336-.101.455.072-.08.011-.012a14.492 14.492 0 00.66-.768c.156-.194.236-.306.236-.306m-1.87.834l.372.873c.061-.06.115-.116.17-.174l.051-.228.177-.798c-.258.113-.514.222-.77.327m-.185-6.525h-2.032v-5.308h-1.469v5.308h-2.033v1.35h5.534zm-6.131 8.738l.642 2.963.151-.073.898-3.627a32.97 32.97 0 01-1.576.336zm-.05-8.738h-2.032v-5.308h-1.47v5.308h-2.032v1.35h5.534zm-6.763-5.308l-.611 1.493h-2.823l-.611-1.493h-1.498l2.862 6.706h1.355l2.862-6.706zm-6.276 0h-5.085v6.659h5.037v-1.303h-3.578v-1.351h3.149v-1.304h-3.149v-1.398h3.626zm-6.364 1.969c0-1.322-1.01-2.064-2.45-2.064a4.255 4.255 0 00-2.833 1.065l.868 1.037c.6-.495 1.231-.808 1.994-.808.601 0 .962.237.962.628v.018c0 .37-.228.562-1.344.847-1.345.342-2.213.713-2.213 2.036v.019c0 1.208.973 2.007 2.337 2.007.973 0 1.804-.305 2.48-.847l-.763-1.103c-.591.409-1.173.656-1.736.656-.562 0-.858-.256-.858-.58v-.02c0-.437.286-.58 1.44-.874 1.355-.352 2.116-.838 2.116-1.998zm-3.24 9.185l.084-.442-.646-.184c.187.216.374.422.562.626m1.058 1.098l.003.003-.003-.016-.246-1.321-.477-.135-.117.612c.28.298.56.582.84.857m.326.313c.125.119.25.239.376.354l.541-1.577-1.209-.344zm1.904 1.65l-.538-2.745-.199-.057-.581 1.694c.44.395.88.765 1.318 1.109m-.024 3.095h1.098v-.485h-1.098zm0 1.389h1.098v-.485h-1.098zm0 1.389h1.098v-.485h-1.098zm0 1.388h1.098v-.485h-1.098zm0 1.388h1.098v-.485h-1.098zm1.947-5.554h.85c-.29-.144-.572-.293-.85-.444zm0 1.389h1.098v-.485h-1.098zm2.506 9.503h.745v-1.121h-.745zm1.384 0h.744v-1.121h-.744zm-1.004-11.041c.027.01.052.023.078.035l.925-3.105-.227-.867a22.113 22.113 0 01-.849-.255l-.774-.221-.074.25zm-1.872-.965c.535.306 1.062.58 1.574.824v-.001l-.776-3.506v-.001zm-.414-.243c.06.037.122.076.183.112l.912-3.076-.079-.361-1.938-.552zm-1.193-3.893l-.015-.064-1.572-.448.57 2.907c.075.056.152.119.227.174l.243-.79zm-.356 2.043l-.211.686c.486.353.97.676 1.447.973l-.761-3.204zm5.849 3.862l-.884-3.39-.187.628-.626 2.098c.588.257 1.155.477 1.697.664m1.187-3.267l-.253-1.01a16.444 16.444 0 01-1.469-.283l-.205.692 1.003 3.843zm-.814 13.504h.744v-1.121h-.744zm1.785-9.622l-.844-3.376-.834 2.92c.597.19 1.158.339 1.678.456zm1.249-3h-1.29v-1.797a7.62 7.62 0 01-.394-.013l-.266.933.961 3.843zm1.137 3.38v-.001l-.152-.591-.022-.09-.691-2.693-1.034 3.099c.75.15 1.39.232 1.899.276m-.174 3.904h1.097v-.485h-1.097zm1.315-7.283h-1.737l.589 2.303.124.484.035.139.047-.14.164-.483zm.145 3.427c.279-.022.553-.051.825-.083l-.362-1.545-.114-.485-.272-1.161-.726 2.15-.164.484-.203.6.003.014c.323.022.576.029.748.03.173 0 .265-.004.265-.004m2.172-3.88l-.234-.956c-.47.007-.731-.004-.731-.004v1.413h-.899l.309 1.314.113.485.334 1.423zm.832 3.418l-.513-2.11-.119-.484-.078-.326-.069.228-.03.098-.146.485-.221.73-.51 1.69c.58-.082 1.143-.187 1.686-.311m.727-1.798l.567-2.004-.19-.704c-.134.013-.252.022-.377.033-.36.03-.699.055-.99.07l-.09.299-.21.694.199.816.118.485.492 2.016zm.778-2.75h-.001c-.006 0-.011 0-.016.002l-.123.012.066.246.057-.197zm-.979 4.424c.069-.018.132-.042.201-.06.26-.07.508-.151.761-.23l.153-.046c.173-.05.349-.097.514-.154l-.667-2.471-.062-.227-.699 2.474zm1.872-.587l1.082-3.798-.068-.311c-.581.1-1.124.177-1.627.239l-.222.782zm1.751-.71l-.552-2.55-.257.9-.643 2.26c.504-.19.989-.394 1.452-.61m-1.227 4.932h.761v-1.375h-.761zm1.225-2.224h.759V122h-.759zm1.698-3.598c.159-.093.319-.184.473-.28l-.184-.57-.441-1.374-.09-.282-.757 3.055c.252-.13.497-.261.736-.395l.263-.154m-.263 1.375h.76v-.573c-.256.14-.51.276-.76.404zm0 2.223h.76V122h-.76zm0 2.224h.76v-1.375h-.76zm.968-6.244l.709-2.995c-.524.158-1.037.297-1.535.42l-.002.01.245.763.375 1.172.203.634a.022.022 0 01.005-.004m.642-.427c.231-.158.454-.315.67-.473.13-.096.265-.193.39-.288l-.619-1.922-.02.007c-.023.006-.044.013-.065.02l-.303 1.28-.144.605-.056.235-.179.758c.112-.074.216-.148.326-.222m1.278-.931c.025-.021.052-.041.078-.061l.55-2.19c-.411.152-.818.292-1.218.42zm1.769-1.555l-.417-.972a25.27 25.27 0 01-.429.167l-.508 2.023c.516-.427.967-.84 1.354-1.218m1.886.345v-.404h-.129c-.146.139-.292.27-.439.404zm-1.098.767h1.098v-.404h-.963l-.135.115zm0 .768h1.098v-.404h-1.098zm0 .769h1.098v-.404h-1.098zm0 .767h1.098v-.404h-1.098zm0 .769h1.098v-.405h-1.098zm0 .768h1.098v-.404h-1.098zm2.744-6.144h.245c-.098-.11-.18-.204-.245-.28zm0 .768h.954c-.139-.146-.264-.28-.379-.405h-.575zm0 .768h1.097v-.404h-1.097zm0 .767h1.097v-.404h-1.097zm0 .768h1.096v-.404h-1.096zm0 .769h1.096v-.404h-1.096zm0 .767h1.097v-.404h-1.097zm0 .769h1.096v-.405h-1.096zm0 .768h1.096v-.404h-1.096zm3.865-4.6c.192.21.382.418.574.616l.063-.201.2-.642a17.78 17.78 0 01-.846-.352zm.78.827a31.722 31.722 0 001.108 1.068l-.32-1.86c-.041-.013-.076-.026-.115-.04-.127-.044-.254-.088-.371-.132l-.23.734zm1.701 1.585l.594-1.921c-.448-.12-.856-.242-1.227-.363l.352 2.044c.093.08.186.162.281.24m1.49 1.162l-.649-3.001-.625 2.02c.428.356.853.682 1.274.98m.313.22l.265.178.211-.725.513-1.76-.122-.524a31.709 31.709 0 01-1.168-.247h-.001c-.127-.03-.26-.06-.383-.09l.383 1.774zm.491.328c.436.28.866.534 1.286.762l-.668-2.88zm3.347 1.722l-.688-3.174-.672 2.575c.466.229.92.428 1.36.599m-.129 5.669h2.28v-.404h-2.28zm2.389-4.963l-.752-3.194-.801 2.747c.547.187 1.067.333 1.553.447m-2.389 6.135h2.28v-.404h-2.28zm2.785-1.94h.76v-.727h-.76zm.043 1.98h2.532v-1.575h-2.532zm3.644-5.856l.047-.01-.684-3.022-.815 3.08c.92.036 1.452-.048 1.452-.048m-.618-4.122l.335-1.263a71.83 71.83 0 01-.614.03zm-1.971.556l.211.853.04.16.221.89.181.728.23.928.945-3.572-.4-1.766c-.318.01-.632.019-.938.023zm-.127-.512l.345-1.243c-.218 0-.44.003-.654 0zm.338 4.819v.426h.76v-.396a13.71 13.71 0 01-.76-.03m-.989-1.516l-.161.575c.58.112 1.104.179 1.56.216l-.236-.951-.174-.7-.353-1.422-.389 1.395-.203.727zm3.684.71l1.018-3.532-.376-1.87a50.752 50.752 0 01-.969.068l-.483 1.825.796 3.513.014-.004m1.649-.4l-.519-2.58-.843 2.922c.471-.102.923-.216 1.362-.341m-.065-5.088a42.96 42.96 0 01-.681.06l.272 1.353zm.407 4.99l.034-.01.985-3.383-.385-1.737-.634.089-.111.016-.018.002-.446 1.552-.129.447.615 3.052.089-.028m1.645-.572l-.508-2.294-.805 2.762c.455-.146.894-.302 1.313-.468m-.08-4.69l-.672.094.278 1.256zm.439 4.546l1.027-3.183-.346-1.523-.838.12-.559 1.917.603 2.717c.038-.015.075-.032.113-.048m1.585-.735l-.444-1.952-.825 2.553c.443-.192.867-.393 1.269-.601m-.025-4.095l-.621.087.245 1.075zm.416 3.887l.969-3.54-.113-.527-.986.139-.548 1.699.526 2.31.152-.081m1.123-4.106h-.008l.004.019zm.404 3.187l-.44-2.068-.768 2.81c.428-.244.832-.492 1.208-.742m.439-.3l.951-3.141-1.514.216-.166.609.524 2.458.205-.142m1.48-1.146l-.351-1.684-.782 2.58c.416-.305.794-.607 1.133-.896m.386-.34l.483-1.853-1.03.147.386 1.85.161-.143m1.912-2.056l-1.149.164-.408 1.562c1.047-.997 1.557-1.726 1.557-1.726m-68.754 6.344h-.744v1.12h.744zm-1.383 1.885h-.744v1.12h.744zm0-1.885h-.744v1.12h.744zm-3.384 9.173h-.054v-.051h-.591v.566h.054v.05h.591zm-.97 0h-.054v-.051h-.591v.566h.054v.05h.591zm-.86-7.288h-.744v1.12h.744zm-.756 7.803h.053v.05h.592v-.565h-.053v-.051h-.592zm-.327-.515h-.053v-.051h-.592v.566h.055v.05h.59zm-.087-7.288h-.745v1.12h.745zm-.883 7.288h-.053v-.051h-.592v.566h.053v.05h.592zm-.766-13.197h-.054v-.051h-.744v1.12h.053v.05h.745zm-3.54 4.04h-.053v-.051h-.676v.808h.054v.05h.675zm-.729 1.808h.676v-.808h-.676zm0 1.05h.676v-.806h-.676zm0 1.053h.676v-.808h-.676zm0 1.05h.676v-.807h-.676zm0 1.052h.676v-.808h-.676zm0 1.052h.676v-.81h-.676zm0 1.05h.676v-.808h-.676zm0 1.052h.676v-.808h-.676zm0 1.052h.676v-.81h-.676zm0 1.05h.676v-.808h-.676zm0 1.052h.676v-.81h-.676zm-.368-12.321h-.054v-.051h-.675v.808h.054v.05h.675zm-.729 1.808h.675v-.808h-.675zm0 1.05h.675v-.806h-.675zm0 1.053h.675v-.808h-.675zm0 1.05h.675v-.807h-.675zm0 1.052h.675v-.808h-.675zm0 1.052h.675v-.81h-.675zm0 1.05h.675v-.808h-.675zm0 1.052h.675v-.808h-.675zm0 1.052h.675v-.81h-.675zm0 1.05h.675v-.808h-.675zm0 1.052h.675v-.81h-.675zm-.368-12.321h-.054v-.051h-.676v.808h.054v.05h.676zm-1.098 0h-.054v-.051h-.675v.808h.054v.05h.675zm-.729 1.808h.675v-.808h-.675zm0 1.05h.675v-.806h-.675zm0 1.053h.675v-.808h-.675zm0 1.05h.675v-.807h-.675zm0 1.052h.675v-.808h-.675zm0 1.052h.675v-.81h-.675zm0 1.05h.675v-.808h-.675zm0 1.052h.675v-.808h-.675zm0 1.052h.675v-.81h-.675zm0 1.05h.675v-.808h-.675zm0 1.052h.675v-.81h-.675zm1.097-10.513h.676v-.808h-.676zm0 1.05h.676v-.806h-.676zm0 1.053h.676v-.808h-.676zm0 1.05h.676v-.807h-.676zm0 1.052h.676v-.808h-.676zm0 1.052h.676v-.81h-.676zm0 1.05h.676v-.808h-.676zm0 1.052h.676v-.808h-.676zm0 1.052h.676v-.81h-.676zm0 1.05h.676v-.808h-.676zm0 1.052h.676v-.81h-.676zm-4.548.554h-.745v2.038h.745zm-.319-8.764h-.745v2.038h.745zm-1.596 0h-.745v2.038h.745zm-1.177 17.203h-1.773v.97h1.773zm0-1.617h-1.773v.97h1.773zm0-1.617h-1.773v.97h1.773zm-.073-10.988h-.745v2.038h.745zm0-2.981h-.745v2.038h.745zm-1.995 17.203h-1.773v.97h1.773zm0-1.617h-1.773v.97h1.773zm0-1.617h-1.773v.97h1.773zm-.426-8.67h-.745v2.038h.745zm-1.436-5.3h-.745v2.039h.745zm-4.385 14.294h-5.909v.324h5.909zm0-.728h-5.909v.324h5.909zm0-.728h-5.909v.323h5.909zm0-.727h-5.909v.323h5.909zm0-.728h-5.909v.324h5.909zm0-.728h-5.909v.323h5.909zm0-.727h-5.909v.323h5.909zm0-.728h-5.909v.323h5.909zm0-.728h-5.909v.323h5.909zm-2.85-5.057h-.745v1.529h.745zm0-2.14h-.745v1.528h.745zm-1.809 2.14h-.745v1.529h.745zm-6.916 19.616h-.532v.815h.532zm0-1.53h-.532v.816h.532zm0-1.527h-.532v.815h.532zm0-1.53h-.532v.816h.532zm0-1.527h-.532v.815h.532zm0-1.528h-.532v.815h.532zm0-3.057h-.532v.815h.532zm0-3.057h-.532v.815h.532zm0-1.528h-.532v.815h.532zm0-3.057h-.532v.815h.532zm0-1.53h-.532v.816h.532zm0-1.527h-.532v.815h.532zm0-3.057h-.532v.815h.532zm0-1.528h-.532v.815h.532zm0-1.528h-.532v.815h.532zm0-1.53h-.532v.816h.532zm0-1.528h-.532v.815h.532zm0-6.114h-.532v.815h.532zm0-3.057h-.532v.815h.532zm0-4.585h-.532v.814h.532zm0-1.53h-.532v.816h.532zm-1.01 47.383h-.532v.815h.532zm0-4.585h-.532v.815h.532zm0-4.585h-.532v.815h.532zm0-1.53h-.532v.816h.532zm0-1.527h-.532v.815h.532zm0-1.53h-.532v.816h.532zm0-1.527h-.532v.815h.532zm0-6.114h-.532v.815h.532zm0-1.528h-.532v.815h.532zm0-4.585h-.532v.815h.532zm0-1.528h-.532v.815h.532zm0-1.53h-.532v.816h.532zm0-1.528h-.532v.815h.532zm0-3.057h-.532v.815h.532zm0-3.057h-.532v.815h.532zm0-3.057h-.532v.815h.532zm0-1.528h-.532v.815h.532zm0-3.057h-.532v.814h.532zm-1.011 45.853h-.532v.815h.532zm0-1.528h-.532v.815h.532zm0-1.53h-.532v.816h.532zm0-4.584h-.532v.815h.532zm0-6.114h-.532v.815h.532zm0-6.113h-.532v.815h.532zm0-3.057h-.532v.815h.532zm0-3.057h-.532v.815h.532zm0-1.528h-.532v.815h.532zm0-1.528h-.532v.815h.532zm0-1.53h-.532v.816h.532zm0-6.113h-.532v.815h.532zm0-3.057h-.532v.815h.532zm-1.011 39.739h-.532v.815h.532zm0-3.057h-.532v.815h.532zm0-1.528h-.532v.815h.532zm0-3.057h-.532v.815h.532zm0-1.528h-.532v.815h.532zm0-1.53h-.532v.816h.532zm0-4.584h-.532v.815h.532zm0-4.585h-.532v.815h.532zm0-3.057h-.532v.815h.532zm0-1.528h-.532v.815h.532zm0-3.057h-.532v.815h.532zm0-1.528h-.532v.815h.532zm0-1.53h-.532v.816h.532zm0-1.528h-.532v.815h.532zm0-1.528h-.532v.815h.532zm0-4.586h-.532v.815h.532zm0-3.057h-.532v.815h.532zm0-4.585h-.532v.814h.532zm-4.303 6.196h-1.833v.507h1.446v.128h.387zm0-8.515l-.829 7.543.829.265zm-2.891-.453l-.409 3.854h.794l.732-3.854zm-.464 7.415l.893.032.298-2.884h-1.191zm-.067 2.188h.993v-.856h-.993zm-.165 1.458h1.026l-.033-.603-.993.064zm-.099 3.58h.993l.132-2.915-1.059-.031zm-.033 3.805h.728l.231-3.043-.993-.031zm-.199 3.804h.861l.099-3.074-.96-.032zm-.033 3.646h.629l.265-3.107h-.894zm.099 3.645l.43-3.043-.628-.032zm-.364-20.605h-4.501v.507h4.501zm-1.732-8.936h-3.651l1.003 7.32 2.648.084zm-1.379 18.383h1.622l-.034-7.957-2.317.032zm1.445 11.292c.022.02.043.04.07.044.038.005.057-.005.082-.01l.025-.01.033-10.46-1.556-.063zm-.864 13.115c-.47 2.615-.832 5.392-1.328 8.015.304.004.561-.036.826-.07.203-2.077.401-4.234.61-6.328.069-.69.179-1.39.072-2.064-.155.095-.153.297-.18.447m0 7.912c.109-.045.287-.024.395-.07.144-2.785.518-5.535.575-8.29-.205.005-.194.264-.215.379-.093.513-.089 1.052-.144 1.582-.21 2.02-.426 4.242-.611 6.295zm3.413 0h.359c-.157-1.283-.283-2.596-.467-3.853-.013 1.194.087 2.577.108 3.853m1.58.172c.031.006.034-.014.036-.035a123.582 123.582 0 00-1.078-7.636c-.05-.288-.015-.723-.359-.86-.239.26-.138.68-.107.998.229 2.39.519 4.985.753 7.395.289.01.525.07.755.138m-11.558-14.697h-.76v1.05h.76zm0-1.658h-.76v1.05h.76zm-1.182 4.205h-.76v1.05h.76zm0-2.547h-.76v1.05h.76zm-2.417-17.51h-.958v1.223h.958zm-.833 18.56h.76v-1.05h-.76zm-2.572-11.988h-.851v1.936h.851zm-8.994 12.959h-.844v.808h.844zm-1.266 0h-.844v.808h.844zm-1.266 0h-.844v.808h.844zm-.257-15.583h-.851v1.936h.851zm0-3.184h-.851v1.936h.851zm0-3.185h-.851v1.936h.851zm-1.01 21.952h-.844v.808h.844zm-.719-21.952h-.851v1.936h.851zm-1.383 9.35h-.851v1.936h.851zm-.008 13.41h.844v-.808h-.844zm156.551-25.71c-4.146 4.982-8.603 6.887-11.558 7.613v5.16h-1.521v.729h-2.405l-.823.788-.38.364h-2.469v-.424h-1.647v-.485H328.7v-.486h-.887v-.485h-1.266v-7.536h-.001a29.595 29.595 0 01-2.529-1.711v1.97h-2.026v.97h-4.433v-.606h-2.912v3.76h-.633v1.334h-.633v.486h-1.774v.848h-3.671v-1.092h-.76v-1.212h-.759v-3.765c-.261.075-.514.14-.761.2v5.748h-6.457v5.336h-7.219v-5.093h-4.938v-11.118c-2.44-1.91-3.811-3.563-3.811-3.563a9.13 9.13 0 01-.863-.045v15.938h-2.406v.728h-1.646v.607h-1.9v2.06l-1.393 1.092h-3.418l-1.141-.727v7.276h-1.772v1.213h-2.154v-1.334h-.885v-2.547h-1.013v-.485h-.886v-1.213h-2.28v3.639h-2.786v5.942h-1.773v.728l-1.519 1.577v.97h-.76v-.97l-1.52-1.213v-.728h-1.646v-6.55h-.506v-15.765h-.887v11.4h-.76v6.428l-.886.363h-6.332v-9.701l-3.228 3.092-.444 16.919-.696.666h-5.255v-15.1h-1.9v-.97h-1.013v-24.51l-.741.472-1.739 17.929a114.22 114.22 0 00-.313 4.8l-.074 3.005a69.287 69.287 0 00.072 3.717c.094 1.937.472 3.768.719 5.64.249 1.894.478 3.769.718 5.642 1.041.208 2.563.543 2.622 1.1-.159.389-.764.497-1.257.62-1.488.373-3.021.523-4.906.536-1.958.014-3.585-.168-5.259-.536-.345-.076-1.138-.38-1.149-.688-.014-.4.819-.671 1.186-.791a7.868 7.868 0 011.652-.344c.32-1.766.506-3.578.826-5.4.307-1.755.695-3.534.897-5.298.114-.981.043-2.007.072-3.027.064-2.184.106-4.342-.049-6.367l-.226-1.94c-.023-.143-.041-.29-.067-.43h.017l-2.126-18.253-.883-.76h.883v-.423l-.883-.085.089-.506.44-.508-.708-4.798v35.206l-1.9 1.577v3.032h-2.279l-.76.97h-1.9l.38-.97h-3.292v-4.851h-1.266v-6.428h-2.28l-1.266.364h-3.039v6.185h-1.013v1.819h-1.013l-1.266.97h-2.027l-1.139-.85h-1.14v-1.454l-.38-.364v-1.455h-.886v-.728h-2.28V101.02h51.589l.031 7.885c.027.288.672 7.052 3.512 7.675l.034.004c.02 0 .116 0 .267-.035.64.626 1.319 1.062 2.034 1.304l.15.05.041-.082c.499-.22 3.015-1.337 3.259-1.49.655 1.726 1.616 3.237 3.008 3.542l.042.005c.024 0 .142.002.327-.042.785.767 1.616 1.3 2.493 1.598l.183.062.05-.101c.613-.271 3.717-1.648 3.998-1.828a.352.352 0 00.065-.06h.037a.92.92 0 00.546.098c.092.01.263.004.475-.13.219-.138.461-.401.706-.863l.086-.032-.035-.064c.384-.764.772-2.043 1.095-4.106a.775.775 0 00.46.08.62.62 0 00.408-.111c.188-.118.395-.344.606-.74l.073-.028-.03-.054c.291-.58.584-1.505.839-2.927.504 1.098 1.192 1.989 2.127 2.194l.032.004c.02 0 .113 0 .258-.033.62.606 1.278 1.029 1.971 1.263l.145.049.04-.08c.483-.215 2.936-1.303 3.159-1.444a.32.32 0 00.051-.048h.029a.73.73 0 00.432.077.567.567 0 00.374-.102c.174-.11.365-.317.559-.682l.068-.025-.028-.051c.387-.77.781-2.182 1.063-4.72.151-.617.112-2.096.112-2.096v-3.916h61.586l.001.028h14.33v15.236z"/><path d="M250.383 114.486c.036.021.072.044.11.064l-.624.805a1.4 1.4 0 01-.07-.046l-.011-.016-.007.005a3.925 3.925 0 01-.387-.3c.48-.244.852-.439.99-.512m-5.281.324c.225.055.693.143 1.273.108l-.504.914a9.97 9.97 0 01-.769-1.023m1.044 1.327l-.027-.029.682-1.235c.254-.04.52-.11.79-.216.007.053.012.106.017.158-.41.646-.814 1.001-1.136 1.195a6.622 6.622 0 01-.326.127m1.62.172c.038.328.074.614.107.845l-.02.008.032.077.03.181a5.071 5.071 0 01-1.413-.935c.286-.027.748-.08 1.264-.176m2.191-.501c.018.01.036.02.054.028-.12.125-.237.243-.35.355zm-3.091-5.071c.1-.534.18-1.062.242-1.538l.033.39c.01.534.045 1.038.106 1.513l-.57.547c.065-.286.13-.588.19-.912m-1.437 3.801a2.04 2.04 0 00.25-.285l1.465-.729-.58 1.051a3.895 3.895 0 01-1.135-.037m1.087-2.257l.789-.757.13 1.475-1.437.714a8.26 8.26 0 00.517-1.432m4.34 2.07c-.52-1.606-.848-3.93-.956-5.015l.031-8.314h.281l.038 9.449c.014.16.185 1.94.688 3.913-.028-.011-.055-.021-.082-.033m-3.153-7.045v-6.284h1.53v8.386a22.086 22.086 0 01-.454 2.443c-.857-2.005-1.065-4.407-1.076-4.545m2.638 8.682c.104.043.206.081.304.112l-.654.248c.114-.113.23-.234.35-.36m-.169-.457l.5-.645.06.148c-.16.19-.318.37-.474.54a3.446 3.446 0 01-.086-.042m.716-.149c.099.198.2.366.303.505a3.784 3.784 0 01-.6-.17c.099-.108.198-.22.297-.335m.516-1.206c-.019.014-.033.022-.051.036-.067-.27-.139-.544-.194-.802.085.231.181.474.278.718l-.033.048m.721.474l.031-.138.46.837-.149.056c-.12-.254-.234-.506-.342-.755m4.84 4.474c-.16.03-.366.067-.62.104.196-.088.397-.18.6-.278.008.06.014.117.02.174m.323-6.384c.05.081.104.15.155.228.116.366.242.711.373 1.036a3.13 3.13 0 01-.568-.575zm-1.749 1.865l.967-.927c.051.597.105 1.205.16 1.806l-1.761.875c.229-.467.44-1.052.634-1.754m3.35 5.781c.018-.016.095-.032.113-.05l.295-.133-.408.183m-.753-5.654c-.143.497-.294.942-.45 1.341-.341-.71-.59-1.53-.747-2.461.324.424.696.758 1.122.956l.075.164m-3.927 2.638c.103-.096.205-.214.304-.349l1.797-.893-.71 1.288a4.812 4.812 0 01-1.392-.046m1.934-.052l.594-1.075.08.85a4.23 4.23 0 01-.674.225m.67-4.458l-.085-.995c.055.1.167.204.222.302l-.103.757c-.012-.02-.022-.043-.034-.064m1.723 4.537a5.9 5.9 0 01-.438-.593c.224-.177.443-.383.654-.62-.062.426-.135.831-.216 1.213m-1.853-6.445c0-.297 0-.594.014-.906.076.468.18.998.31 1.55a19.4 19.4 0 01-.324-.644m.276 7.559c-.073.035-.204.069-.275.103a6.5 6.5 0 00.2-.255c.006.051.07.102.075.152m1.948-3.741c-.012.141-.077.288-.091.426a8.581 8.581 0 01-.26-.474c.05-.004.115-.012.203-.033.029.03.118.052.148.08m-.177-3.145c-.002.023.053.046.05.07l-.086.013c.013-.026.024-.056.037-.083m.219 5.9c.078-.37.152-.763.214-1.177.228.267.467.5.72.694-.28.147-.597.311-.934.483m1.772-2.2l-.02.008.033.08c.01.07.02.134.03.19a4.573 4.573 0 01-.366-.177 34.942 34.942 0 01-.192-.921c.13-.02.264-.043.403-.07.04.346.077.647.112.89m-.414 1.505a4.623 4.623 0 01-1.061-1.07c.025-.204.046-.415.066-.628.223.18.45.333.682.472.1.444.205.856.313 1.226m-1.96-3.157c-.153-.19-.318-.408-.496-.67l-.043-.13c.156.036.395.076.69.096-.049.244-.099.478-.151.704m.599.567c-.013.005-.087.011-.099.015-.01-.009-.019-.02-.028-.03l.075-.138c-.002.051.054.102.052.153m-.103-.821c.024-.115.051-.224.075-.343 0 .074.054.143.053.216zm-.176 5.28c.04-.144.077-.292.116-.446.11.096.22.185.331.268a6.822 6.822 0 01-.447.179m.042-6.571c-.028.17-.056.34-.086.501a3.954 3.954 0 01-.47-.056c.09-.082.177-.184.262-.299zm-.348 3.147c.09.16.186.31.28.456l-.018-.057c-.18.229-.426.429-.618.604.123-.307.24-.641.356-1.003m1.703 3.365l-.105-.052.614-.791.073.182c-.175.207-.361.422-.582.66m.831-.233c.121.242.245.449.372.618a4.652 4.652 0 01-.735-.208c.12-.132.241-.268.363-.41m.304-.362c.211-.258.423-.53.633-.816.075-.055.153-.116.237-.183a20.172 20.172 0 01-.437 1.758 3.74 3.74 0 01-.434-.76m-.119-.813a3.348 3.348 0 01-.222-.09 17.988 17.988 0 01-.353-1.265c.149.068.299.134.45.186l.159.053.042-.087c.21-.093.763-.338 1.364-.607a18.388 18.388 0 01-.99 1.508c-.202.149-.36.249-.45.303m1.37.109l.564 1.025-.9.343c.12-.397.235-.884.337-1.367m-.035 1.853l-.118-.03-.042.027a.468.468 0 01-.24-.023l.789-.3a1.261 1.261 0 01-.22.224c-.121.093-.144.101-.17.102m-4.215 1.002c.104-.288.216-.627.332-1.012a7.52 7.52 0 00.68-.25l-.964 1.244zm2.077-2.889c.045.027.089.054.134.079l-.765.987c-.03-.018-.056-.037-.086-.056l-.012-.02-.01.005a4.88 4.88 0 01-.473-.367 99.18 99.18 0 001.212-.628m-.109 1.841c.128.052.252.097.372.136l-.801.305c.17-.17.307-.313.429-.44m-.47-.222l.066.034c-.122.128-.258.267-.43.435zm4.179-5.385c.038.075.077.15.117.215-.027.06-.053.12-.081.178-.057-.015-.117-.034-.178-.053.05-.11.094-.227.142-.34m-1.329 3.085a8.223 8.223 0 001.509-1.908l.145-.068c-.278 1.666-.59 2.73-.876 3.394zm-7.426-10.007l-.022-5.6h.92v7.49c-.014.213-.036.466-.062.74a23.87 23.87 0 01-.836-2.63m.709 3.764a20.213 20.213 0 01-.3-1.207c.111.301.224.587.34.87-.013.111-.025.221-.04.337m.301.963c.028-.191.053-.351.075-.518l.04.477.002.055-.105.025-.012-.04m1.936.671l.015.026a1.32 1.32 0 01-.409.385 22.22 22.22 0 01-.74-3.92v-7.487h1.876v9.323c-.197.67-.426 1.255-.693 1.65zm1.597-10.997h.036v3.953c-.013.179-.031.39-.053.618zm4.512 12.3c-.028-.057-.057-.108-.085-.169.078-.094.155-.2.233-.299-.048.158-.093.32-.148.468m-8.209-.607c.04-.216.074-.427.109-.639.099.232.204.457.317.672.014.138.024.28.041.414l-.7.671c.081-.35.159-.722.233-1.118m4.517-7.741v-3.951h1.609v6.16a23.515 23.515 0 01-.478 2.568c-.902-2.107-1.12-4.632-1.131-4.777m63.412 10.078h-2.532v3.087h2.532z"/></g></svg>