<svg width="280mm" height="100mm" viewBox="0 0 280 100" style="background-color:#fff" xmlns="http://www.w3.org/2000/svg"><defs><clipPath clipPathUnits="userSpaceOnUse" id="prefix__a"><path d="M0 792h612V0H0z"/></clipPath></defs><g aria-label="CVPR" style="-inkscape-font-specification:DINCondensed-Bold" font-weight="700" font-stretch="condensed" font-size="75.724" font-family="DIN Condensed" fill="#1c75b8"><path d="M28.06 77.22v3.01q0 2.255-.89 4.306-.82 1.983-2.324 3.556-1.504 1.572-3.556 2.53-1.982.888-4.307.888-1.983 0-4.034-.547-2.051-.547-3.692-1.914-1.64-1.367-2.735-3.487-1.025-2.188-1.025-5.538V53.222q0-2.393.82-4.444.82-2.05 2.325-3.555 1.504-1.504 3.555-2.325 2.12-.888 4.65-.888 4.922 0 7.999 3.213 1.504 1.573 2.324 3.76.89 2.12.89 4.65v2.734h-6.975v-2.324q0-2.051-1.162-3.555-1.162-1.505-3.145-1.505-2.598 0-3.487 1.641-.82 1.573-.82 4.034v24.887q0 2.12.888 3.556.958 1.435 3.35 1.435.684 0 1.436-.205.82-.273 1.504-.82.616-.547 1.026-1.504.41-.957.41-2.393V77.22zM57.39 42.42L47.408 91.1h-6.153L31.34 42.42h7.384l5.538 33.98h.137l5.606-33.98zM61.561 91.1V42.42h10.46q2.872 0 5.06.752 2.188.752 3.966 2.666 1.778 1.915 2.461 4.513.684 2.53.684 6.905 0 3.282-.41 5.538-.342 2.257-1.573 4.24-1.436 2.392-3.829 3.76-2.393 1.299-6.29 1.299h-3.555V91.1zm6.974-42.117V65.53h3.35q2.12 0 3.282-.615t1.71-1.71q.546-1.025.615-2.53.136-1.503.136-3.35 0-1.709-.068-3.213-.068-1.572-.615-2.735-.547-1.162-1.641-1.777-1.094-.616-3.145-.616zM96.362 48.983v15.179h3.966q1.846 0 2.94-.479 1.093-.547 1.709-1.504.547-.957.752-2.325.205-1.435.205-3.281t-.205-3.214q-.205-1.436-.82-2.461-1.3-1.915-4.923-1.915zM89.388 91.1V42.42h11.213q12.307 0 12.307 14.29 0 4.307-1.368 7.315-1.299 3.008-4.649 4.854l7.521 22.221h-7.384l-6.495-20.785h-4.171V91.1z"/></g><g aria-label="VANCOUVER, CANADA" style="-inkscape-font-specification:DINAlternate-Bold" font-weight="700" font-size="17.304" font-family="DIN Alternate" fill="#414042"><path d="M126.744 91.1h1.312l3.677-11.123h-1.785l-2.533 8.468h-.03l-2.526-8.468h-1.785zM134.03 87.118l1.61-4.86h.03l1.61 4.86zm4.592 3.982h1.778l-4.044-11.123h-1.41L130.901 91.1h1.785l.854-2.487h4.22zM141.592 91.1h1.686v-7.903h.03l5.028 7.903h1.594V79.977h-1.686v7.904h-.03l-5.035-7.904h-1.587zM157.992 87.988q-.701 1.518-2.12 1.518-.595 0-1.023-.252-.434-.214-.701-.557-.328-.359-.435-.938-.122-.58-.122-2.22 0-1.64.122-2.235.107-.565.435-.924.267-.343.701-.572.428-.221 1.023-.236.808.015 1.373.465.541.473.747 1.144h1.786q-.267-1.396-1.282-2.342-1.015-.938-2.624-.953-1.312.015-2.19.625-.892.603-1.297 1.374-.251.404-.374 1.06-.114.656-.114 2.594 0 1.907.114 2.578.062.359.153.595.1.23.221.48.405.771 1.297 1.359.878.61 2.19.64 1.45 0 2.51-.823 1.03-.832 1.396-2.38zM160.584 85.539q0 1.907.114 2.578.061.359.153.595.099.23.221.48.404.771 1.297 1.359.877.61 2.19.64 1.327-.03 2.212-.64.877-.588 1.266-1.358.282-.404.39-1.076.098-.671.098-2.578 0-1.938-.099-2.594-.107-.656-.389-1.06-.389-.771-1.266-1.374-.885-.61-2.213-.625-1.312.015-2.189.625-.893.603-1.297 1.374-.252.404-.374 1.06-.114.656-.114 2.594zm1.693 0q0-1.64.123-2.235.106-.565.434-.924.267-.343.702-.572.427-.221 1.022-.236.603.015 1.046.236.42.23.67.572.329.359.451.924.114.595.114 2.235t-.114 2.22q-.122.58-.45.938-.252.343-.671.557-.443.252-1.046.252-.595 0-1.022-.252-.435-.214-.702-.557-.328-.359-.434-.938-.123-.58-.123-2.22zM170.29 87.331q.015 1.755 1.16 2.785 1.12 1.06 2.791 1.076 1.702-.016 2.816-1.076 1.106-1.03 1.136-2.785v-7.354h-1.686v7.171q-.015 1.137-.64 1.732-.641.626-1.626.626-.984 0-1.61-.626-.64-.595-.655-1.732v-7.17h-1.686zM182.849 91.1h1.312l3.677-11.123h-1.785l-2.533 8.468h-.03l-2.526-8.468h-1.785zM189.025 91.1h7.103v-1.594h-5.417V86.24h4.623v-1.496h-4.623v-3.173h5.417v-1.595h-7.103zM199.398 81.48h2.64q.808 0 1.236.344.541.389.557 1.258 0 .725-.466 1.22-.473.535-1.419.55h-2.548zm-1.686 9.62h1.686v-4.753h2.152l2.296 4.753h2.006l-2.578-4.936q2.12-.816 2.151-3.082-.046-1.54-1.106-2.372-.878-.733-2.266-.733h-4.34zM207.144 92.26l1.594-1.16v-1.594h-1.594zM220.456 87.988q-.702 1.518-2.12 1.518-.596 0-1.023-.252-.435-.214-.702-.557-.328-.359-.435-.938-.122-.58-.122-2.22 0-1.64.122-2.235.107-.565.435-.924.267-.343.702-.572.427-.221 1.022-.236.809.015 1.373.465.542.473.748 1.144h1.785q-.267-1.396-1.281-2.342-1.015-.938-2.625-.953-1.312.015-2.19.625-.892.603-1.296 1.374-.252.404-.374 1.06-.114.656-.114 2.594 0 1.907.114 2.578.061.359.153.595.099.23.221.48.404.771 1.297 1.359.877.61 2.19.64 1.449 0 2.51-.823 1.03-.832 1.395-2.38zM225.397 87.118l1.61-4.86h.03l1.61 4.86zm4.593 3.982h1.777l-4.043-11.123h-1.411L222.269 91.1h1.785l.855-2.487h4.219zM232.96 91.1h1.685v-7.903h.03l5.028 7.903h1.595V79.977h-1.686v7.904h-.03l-5.036-7.904h-1.587zM245.614 87.118l1.61-4.86h.03l1.61 4.86zm4.593 3.982h1.777l-4.043-11.123h-1.411L242.486 91.1h1.786l.854-2.487h4.219zM253.177 91.1h3.776q1.25 0 2.113-.55.87-.51 1.358-1.296.183-.298.313-.572.122-.282.183-.641.13-.71.13-2.502 0-1.686-.084-2.373-.107-.686-.512-1.312-1.129-1.861-3.387-1.877h-3.89zm1.685-9.528h2.014q1.282-.03 1.984.938.343.39.435 1.015.068.625.068 2.075 0 1.487-.068 2.029-.077.55-.359.908-.64.969-2.06.969h-2.014zM264.702 87.118l1.61-4.86h.03l1.61 4.86zm4.592 3.982h1.778l-4.043-11.123h-1.412L261.574 91.1h1.785l.855-2.487h4.218z"/></g><g clip-path="url(#prefix__a)" transform="matrix(.9029 0 0 -.9029 -132.168 501.015)"><path d="M276.775 482.225l7.89 12.15 15.094 8.098 7.889-10.124 6.175 10.124h11.663l7.204-10.124 8.878 5.4 15.82-5.4 12.007 10.124 22.955 4.05 8.262-16.199 11.32 8.1s32.246-15.524 31.903-16.199c-.343-.675 5.488-10.124 5.488-10.124H274.03z" fill="#1c75b8"/><path d="M276.775 482.225l7.89 12.15 15.094 8.098 7.889-10.124 6.175 10.124h11.663l7.204-10.124 8.878 5.4 15.82-5.4 12.007 10.124 22.955 4.05 8.262-16.199 11.32 8.1s32.246-15.524 31.903-16.199c-.343-.675 5.488-10.124 5.488-10.124H274.03z" fill="none" stroke="#fff" stroke-width=".355" stroke-linejoin="round" stroke-miterlimit="10"/><path d="M376.028 526.637h5.177v-52.684h-5.177z" fill="#1c75b8" stroke="#fff" stroke-width=".355" stroke-linejoin="round" stroke-miterlimit="10"/><path d="M383.248 473.954h-2.043v52.684h2.043zM381.205 472.889v52.684M384.747 473.954h-1.499v52.684h1.499z" fill="#1c75b8" stroke="#fff" stroke-width=".355" stroke-linejoin="round" stroke-miterlimit="10"/><path d="M376.028 526.637s2.18 5.445 5.177 7.08c0 0 2.861-3.268 3.542-7.08z" fill="#1c75b8"/><path d="M376.028 526.637s2.18 5.445 5.177 7.08c0 0 2.861-3.268 3.542-7.08z" fill="none" stroke="#fff" stroke-width=".355" stroke-linejoin="round" stroke-miterlimit="10"/><path d="M404.909 471.776h-33.376v6.534h33.376z" fill="#1c75b8" stroke="#fff" stroke-width=".355" stroke-linejoin="round" stroke-miterlimit="10"/><path d="M381.205 533.716v6.51" fill="#1c75b8" stroke="#231f20" stroke-width=".355" stroke-linejoin="round" stroke-miterlimit="10"/><path d="M377.402 523.698h2.985M377.402 521.568h2.985M377.402 519.439h2.985M377.402 517.309h2.985M377.402 515.18h2.985M377.402 513.05h2.985M377.402 510.92h2.985M377.402 508.79h2.985M377.402 506.66h2.985M377.402 504.53h2.985M377.402 502.4h2.985M377.402 500.271h2.985M377.402 498.141h2.985M377.402 496.012h2.985M377.402 493.882h2.985M377.402 491.752h2.985M377.402 489.623h2.985M377.402 487.493h2.985M377.402 485.363h2.985M377.402 483.233h2.985M377.402 481.104h2.985M371.533 475.818h33.376M327.636 471.832h-10.017v58.301h10.017z" fill="#1c75b8" stroke="#fff" stroke-width=".355" stroke-linejoin="round" stroke-miterlimit="10"/><path d="M312.875 471.832h4.745v58.301h-4.745zM327.636 471.832h4.745v58.301h-4.745z" fill="#1c75b8" stroke="#fff" stroke-width=".355" stroke-linejoin="round" stroke-miterlimit="10"/><path d="M322.627 540.87c-1.756-.168-1.494-1.294-1.494-1.294h2.988s.262 1.126-1.494 1.295" fill="#1c75b8"/><path d="M322.627 540.87c-1.756-.168-1.494-1.294-1.494-1.294h2.988s.262 1.126-1.494 1.295z" fill="none" stroke="#fff" stroke-width=".355" stroke-linejoin="round" stroke-miterlimit="10"/><path d="M321.835 524.298h-1.489v3.161h1.489zM324.909 524.298h-1.489v3.161h1.489zM321.835 519.874h-1.489v3.161h1.489zM324.909 519.874h-1.489v3.161h1.489zM321.835 515.449h-1.489v3.161h1.489zM324.909 515.449h-1.489v3.161h1.489zM321.835 511.024h-1.489v3.161h1.489zM324.909 511.024h-1.489v3.161h1.489zM321.835 506.599h-1.489v3.161h1.489zM324.909 506.599h-1.489v3.161h1.489zM321.835 502.174h-1.489v3.161h1.489zM324.909 502.174h-1.489v3.161h1.489zM324.165 533.394h-3.074v6.182h3.074z" fill="#1c75b8" stroke="#fff" stroke-width=".355" stroke-linejoin="round" stroke-miterlimit="10"/><path d="M322.627 536.655c-5.887-.853-5.008-6.522-5.008-6.522h10.016s.88 5.67-5.007 6.522" fill="#1c75b8"/><path d="M322.627 536.655c-5.887-.853-5.008-6.522-5.008-6.522h10.016s.88 5.67-5.007 6.522z" fill="none" stroke="#fff" stroke-width=".355" stroke-linejoin="round" stroke-miterlimit="10"/><path d="M322.009 531.135h-1.639v1.638h1.639zM324.885 531.135h-1.639v1.638h1.639zM328.427 525.879h2.46M328.427 524.298h2.46M328.427 522.718h2.46M328.427 521.138h2.46M328.427 519.557h2.46M328.427 517.977h2.46M328.427 516.396h2.46M328.427 514.816h2.46M328.427 513.235h2.46M328.427 511.655h2.46M328.427 510.074h2.46M328.427 508.494h2.46M328.427 506.913h2.46M328.427 505.333h2.46M314.368 525.879h2.46M314.368 524.298h2.46M314.368 522.718h2.46M314.368 521.138h2.46M314.368 519.557h2.46M314.368 517.977h2.46M314.368 516.396h2.46M314.368 514.816h2.46M314.368 513.235h2.46M314.368 511.655h2.46M314.368 510.074h2.46M314.368 508.494h2.46M314.368 506.913h2.46M314.368 505.333h2.46M322.665 471.832h-28.932v29.15h28.932z" fill="#1c75b8" stroke="#fff" stroke-width=".355" stroke-linejoin="round" stroke-miterlimit="10"/><path d="M333.4 471.832h-10.735v29.15H333.4z" fill="#1c75b8" stroke="#fff" stroke-width=".355" stroke-linejoin="round" stroke-miterlimit="10"/><path d="M333.4 471.832h-10.772v8.879H333.4zM324.885 479.168v-5.444M326.195 479.168v-5.444M327.505 479.168v-5.444M328.815 479.168v-5.444M330.125 479.168v-5.444M331.434 479.168v-5.444M321.835 496.146h-25.751v2.107h25.751zM321.835 492.634h-25.751v2.107h25.751zM321.835 489.122h-25.751v2.107h25.751zM321.835 485.61h-25.751v2.107h25.751zM321.835 482.098h-25.751v2.107h25.751zM321.835 478.586h-25.751v2.107h25.751zM375.9 478.953h-18.696v37.884H375.9z" fill="#1c75b8" stroke="#fff" stroke-width=".355" stroke-linejoin="round" stroke-miterlimit="10"/><path d="M368.629 478.953h-4.155v42.036h4.155zM364.474 520.989h-7.271v-4.152h7.271z" fill="#1c75b8" stroke="#fff" stroke-width=".355" stroke-linejoin="round" stroke-miterlimit="10"/><path d="M375.9 520.989h-7.271v-4.152h7.271zM357.204 514.761h5.799M357.204 513.205h5.799M357.204 511.648h5.799M357.204 510.09h5.799M357.204 508.534h5.799M357.204 506.977h5.799M357.204 505.42h5.799M357.204 503.863h5.799M357.204 502.306h5.799M357.204 500.75h5.799M357.204 499.193h5.799M357.204 497.636h5.799M357.204 496.079h5.799M357.204 494.522h5.799M357.204 492.965h5.799M357.204 491.408h5.799M357.204 489.851h5.799M357.204 488.294h5.799M357.204 486.738h5.799M357.204 485.18h5.799M357.204 483.624h5.799M357.204 482.067h5.799M370.1 514.761h5.8M370.1 513.205h5.8M370.1 511.648h5.8M370.1 510.09h5.8M370.1 508.534h5.8M370.1 506.977h5.8M370.1 505.42h5.8M370.1 503.863h5.8M370.1 502.306h5.8M370.1 500.75h5.8M370.1 499.193h5.8M370.1 497.636h5.8M370.1 496.079h5.8M370.1 494.522h5.8M370.1 492.965h5.8M370.1 491.408h5.8M370.1 489.851h5.8M370.1 488.294h5.8M370.1 486.738h5.8M370.1 485.18h5.8M370.1 483.624h5.8M370.1 482.067h5.8M366.552 525.833h-7.184v-4.844h7.184z" fill="#1c75b8" stroke="#fff" stroke-width=".355" stroke-linejoin="round" stroke-miterlimit="10"/><path d="M373.736 525.833h-7.184v-4.844h7.184z" fill="#1c75b8" stroke="#fff" stroke-width=".355" stroke-linejoin="round" stroke-miterlimit="10"/><path d="M359.368 525.832l7.184 9.168v-9.168z" fill="#1c75b8"/><path d="M359.368 525.832l7.184 9.168v-9.168z" fill="none" stroke="#fff" stroke-width=".355" stroke-linejoin="round" stroke-miterlimit="10"/><path d="M373.736 525.832L366.552 535v-9.168z" fill="#1c75b8"/><path d="M373.736 525.832L366.552 535v-9.168z" fill="none" stroke="#fff" stroke-width=".355" stroke-linejoin="round" stroke-miterlimit="10"/><path d="M430.646 472.101h-6.132v56.438h6.132z" fill="#1c75b8" stroke="#fff" stroke-width=".355" stroke-linejoin="round" stroke-miterlimit="10"/><path d="M424.514 526.347h-3.655v-3.653h-2.925v-50.593h6.58z" fill="#1c75b8"/><path d="M424.514 526.347h-3.655v-3.653h-2.925v-50.593h6.58z" fill="none" stroke="#fff" stroke-width=".355" stroke-linejoin="round" stroke-miterlimit="10"/><path d="M430.646 527.078l4.47-3.836v-51.14h-4.47z" fill="#1c75b8"/><path d="M430.646 527.078l4.47-3.836v-51.14h-4.47z" fill="none" stroke="#fff" stroke-width=".355" stroke-linejoin="round" stroke-miterlimit="10"/><path d="M417.934 517.531h4.95M417.934 515.34h4.95M417.934 513.148h4.95M417.934 510.956h4.95M417.934 508.764h4.95M417.934 506.572h4.95M417.934 504.38h4.95M417.934 502.189h4.95M417.934 499.997h4.95M417.934 497.805h4.95M417.934 495.613h4.95M417.934 493.422h4.95M417.934 491.23h4.95M417.934 489.038h4.95M417.934 486.846h4.95M417.934 484.655h4.95M417.934 482.463h4.95M417.934 480.271h4.95M417.934 478.08h4.95M417.934 475.888h4.95M432.158 517.531h2.957M432.158 515.34h2.957M432.158 513.148h2.957M432.158 510.956h2.957M432.158 508.764h2.957M432.158 506.572h2.957M432.158 504.38h2.957M432.158 502.189h2.957M432.158 499.997h2.957M432.158 497.805h2.957M432.158 495.613h2.957M432.158 493.422h2.957M432.158 491.23h2.957M432.158 489.038h2.957M432.158 486.846h2.957M432.158 484.655h2.957M432.158 482.463h2.957M432.158 480.271h2.957M432.158 478.08h2.957M432.158 475.888h2.957M426.102 517.531h2.957M426.102 515.34h2.957M426.102 513.148h2.957M426.102 510.956h2.957M426.102 508.764h2.957M426.102 506.572h2.957M426.102 504.38h2.957M426.102 502.189h2.957M426.102 499.997h2.957M426.102 497.805h2.957M426.102 495.613h2.957M426.102 493.422h2.957M426.102 491.23h2.957M426.102 489.038h2.957M426.102 486.846h2.957M426.102 484.655h2.957M426.102 482.463h2.957M426.102 480.271h2.957M426.102 478.08h2.957M426.102 475.888h2.957M331.17 481.15h-46.923v2.558h46.923zM331.17 483.708s-7.702 7.288-23.462 7.288c-15.759 0-23.46-7.288-23.46-7.288" fill="#1c75b8" stroke="#fff" stroke-width=".355" stroke-linejoin="round" stroke-miterlimit="10"/><path d="M286.451 483.708l2.448 3.114c.062.078.175.09.252.027l3.642-2.997a.177.177 0 01.272.061l2.248 4.735a.177.177 0 00.29.045l4.47-4.784a.177.177 0 01.293.052l2.49 5.968a.177.177 0 00.306.036l4.226-5.816a.178.178 0 01.321.104v6.743" fill="#1c75b8" stroke="#fff" stroke-width=".355" stroke-linejoin="round" stroke-miterlimit="10"/><path d="M328.966 483.708l-2.448 3.114a.178.178 0 01-.251.027l-3.641-2.997a.178.178 0 00-.273.061l-2.249 4.735a.177.177 0 01-.29.045l-4.47-4.784a.177.177 0 00-.293.052l-2.489 5.968a.177.177 0 01-.307.036l-4.226-5.816a.178.178 0 00-.32.104v6.743" fill="#1c75b8" stroke="#fff" stroke-width=".355" stroke-linejoin="round" stroke-miterlimit="10"/><path d="M286.246 472.079h-5.24l.465 18.142h4.31z" fill="#1c75b8"/><path d="M286.246 472.079h-5.24l.465 18.142h4.31z" fill="none" stroke="#fff" stroke-width=".355" stroke-linejoin="round" stroke-miterlimit="10"/><path d="M283.626 486.379a.983.983 0 01-.984-.984v-2.772h1.968v2.772c0 .544-.44.984-.984.984" fill="#1c75b8"/><path d="M283.626 486.379a.983.983 0 01-.984-.984v-2.772h1.968v2.772c0 .544-.44.984-.984.984z" fill="none" stroke="#fff" stroke-width=".355" stroke-linejoin="round" stroke-miterlimit="10"/><path d="M334.412 472.079h-5.24l.465 18.142h4.31z" fill="#1c75b8"/><path d="M334.412 472.079h-5.24l.465 18.142h4.31z" fill="none" stroke="#fff" stroke-width=".355" stroke-linejoin="round" stroke-miterlimit="10"/><path d="M331.792 486.379a.983.983 0 01-.984-.984v-2.772h1.968v2.772c0 .544-.44.984-.984.984" fill="#1c75b8"/><path d="M331.792 486.379a.983.983 0 01-.984-.984v-2.772h1.968v2.772c0 .544-.44.984-.984.984z" fill="none" stroke="#fff" stroke-width=".355" stroke-linejoin="round" stroke-miterlimit="10"/><path d="M401.049 516.028v-6.39h-3.682v-6.123h-3.463v-6.388h-3.825V472.1h21.94v43.927z" fill="#1c75b8"/><path d="M401.049 516.028v-6.39h-3.682v-6.123h-3.463v-6.388h-3.825V472.1h21.94v43.927z" fill="none" stroke="#fff" stroke-width=".355" stroke-linejoin="round" stroke-miterlimit="10"/><path d="M406.012 509.639h6.006M401.987 503.515h10.032M398.08 497.126h13.939M392.391 493.097v-16.381M395.854 493.097v-16.381M399.317 493.097v-16.381M402.78 493.097v-16.381M406.243 493.097v-16.381M409.707 493.097v-16.381M395.386 501.792v-1.198M397.505 501.792v-1.198M399.623 501.792v-1.198M401.742 501.792v-1.198M403.86 501.792v-1.198M405.979 501.792v-1.198M408.097 501.792v-1.198M410.216 501.792v-1.198M395.386 499.84v-1.198M397.505 499.84v-1.198M399.623 499.84v-1.198M401.742 499.84v-1.198M403.86 499.84v-1.198M405.979 499.84v-1.198M408.097 499.84v-1.198M410.216 499.84v-1.198M401.742 508.07v-1.198M403.86 508.07v-1.198M405.979 508.07v-1.198M408.097 508.07v-1.198M410.216 508.07v-1.198M401.742 506.118v-1.198M403.86 506.118v-1.198M405.979 506.118v-1.198M408.097 506.118v-1.198M410.216 506.118v-1.198M403.86 514.448v-1.198M405.979 514.448v-1.198M408.097 514.448v-1.198M410.216 514.448v-1.198M403.86 512.496v-1.198M405.979 512.496v-1.198M408.097 512.496v-1.198M410.216 512.496v-1.198" fill="#1c75b8" stroke="#fff" stroke-width=".355" stroke-linejoin="round" stroke-miterlimit="10"/><path d="M351.137 519.59c0-4.385-3.557-7.939-7.944-7.939-4.387 0-7.944 3.554-7.944 7.938s3.557 7.938 7.944 7.938c4.387 0 7.944-3.554 7.944-7.938" fill="#1c75b8"/><path d="M351.137 519.59c0-4.385-3.557-7.939-7.944-7.939-4.387 0-7.944 3.554-7.944 7.938s3.557 7.938 7.944 7.938c4.387 0 7.944-3.554 7.944-7.938z" fill="none" stroke="#fff" stroke-width=".355" stroke-linejoin="round" stroke-miterlimit="10"/><path d="M352.328 472.356h-18.27v46.878c0 .196.158.355.354.355h17.561a.355.355 0 00.355-.355z" fill="#1c75b8"/><path d="M352.328 472.356h-18.27v46.878c0 .196.158.355.354.355h17.561a.355.355 0 00.355-.355z" fill="none" stroke="#fff" stroke-width=".355" stroke-linejoin="round" stroke-miterlimit="10"/><path d="M336.043 516.81h5.561M344.781 516.81h5.561M336.043 514.43h5.561M344.781 514.43h5.561M336.043 512.048h5.561M344.781 512.048h5.561M336.043 509.666h5.561M344.781 509.666h5.561M336.043 507.285h5.561M344.781 507.285h5.561M336.043 504.903h5.561M344.781 504.903h5.561M336.043 502.522h5.561M344.781 502.522h5.561M336.043 500.14h5.561M344.781 500.14h5.561M336.043 497.759h5.561M344.781 497.759h5.561M336.043 495.377h5.561M344.781 495.377h5.561M336.043 492.995h5.561M344.781 492.995h5.561M336.043 490.614h5.561M344.781 490.614h5.561M336.043 488.233h5.561M344.781 488.233h5.561M336.043 485.851h5.561M344.781 485.851h5.561M336.043 483.47h5.561M344.781 483.47h5.561M336.043 481.088h5.561M344.781 481.088h5.561M336.043 478.706h5.561M344.781 478.706h5.561M336.043 476.325h5.561M344.781 476.325h5.561M321.557 483.23a11.255 11.255 0 01-10.284-6.678h43.078a11.254 11.254 0 01-10.284 6.678M321.206 483.23h22.862" fill="#1c75b8" stroke="#fff" stroke-width=".355" stroke-linejoin="round" stroke-miterlimit="10"/><path d="M331.841 476.552h1.942a11.29 11.29 0 004.657 5.17 11.212 11.212 0 01-5.628 1.508c-2.05 0-3.972-.55-5.628-1.508a11.29 11.29 0 004.657-5.17" fill="#1c75b8"/><path d="M331.841 476.552h1.942a11.29 11.29 0 004.657 5.17 11.212 11.212 0 01-5.628 1.508c-2.05 0-3.972-.55-5.628-1.508a11.29 11.29 0 004.657-5.17z" fill="none" stroke="#fff" stroke-width=".355" stroke-linejoin="round" stroke-miterlimit="10"/><path d="M343.097 476.552h11.255a11.255 11.255 0 01-15.912 5.17 11.29 11.29 0 004.657-5.17" fill="#1c75b8"/><path d="M343.097 476.552h11.255a11.255 11.255 0 01-15.912 5.17 11.29 11.29 0 004.657-5.17z" fill="none" stroke="#fff" stroke-width=".355" stroke-linejoin="round" stroke-miterlimit="10"/><path d="M333.783 476.552h9.313a11.294 11.294 0 01-4.656 5.17 11.29 11.29 0 01-4.657-5.17" fill="#1c75b8"/><path d="M333.783 476.552h9.313a11.294 11.294 0 01-4.656 5.17 11.29 11.29 0 01-4.657-5.17z" fill="none" stroke="#fff" stroke-width=".355" stroke-linejoin="round" stroke-miterlimit="10"/><path d="M327.185 481.722a11.255 11.255 0 01-15.912-5.17h11.255a11.292 11.292 0 004.657 5.17" fill="#1c75b8"/><path d="M327.185 481.722a11.255 11.255 0 01-15.912-5.17h11.255a11.292 11.292 0 004.657 5.17z" fill="none" stroke="#fff" stroke-width=".355" stroke-linejoin="round" stroke-miterlimit="10"/><path d="M322.528 476.552h9.313a11.294 11.294 0 01-4.656 5.17 11.29 11.29 0 01-4.657-5.17" fill="#1c75b8"/><path d="M322.528 476.552h9.313a11.294 11.294 0 01-4.656 5.17 11.29 11.29 0 01-4.657-5.17z" fill="none" stroke="#fff" stroke-width=".355" stroke-linejoin="round" stroke-miterlimit="10"/><path d="M333.783 476.552h-1.942M354.352 476.552h-11.255M343.097 476.552h-9.313M322.528 476.552h-11.255M331.841 476.552h-9.313" fill="#1c75b8" stroke="#fff" stroke-width=".355" stroke-linejoin="round" stroke-miterlimit="10"/><path d="M354.968 472.335h-44.31a.355.355 0 00-.356.355v3.508c0 .196.159.355.356.355h44.31a.355.355 0 00.355-.355v-3.508a.355.355 0 00-.355-.355" fill="#1c75b8"/><path d="M354.968 472.335h-44.31a.355.355 0 00-.356.355v3.508c0 .196.159.355.356.355h44.31a.355.355 0 00.355-.355v-3.508a.355.355 0 00-.355-.355z" fill="none" stroke="#fff" stroke-width=".355" stroke-linejoin="round" stroke-miterlimit="10"/><path d="M354.968 473.74h-44.31a.355.355 0 00-.356.355v.696c0 .197.159.356.356.356h44.31a.355.355 0 00.355-.355v-.696a.355.355 0 00-.355-.355" fill="#1c75b8"/><path d="M354.968 473.74h-44.31a.355.355 0 00-.356.355v.696c0 .197.159.356.356.356h44.31a.355.355 0 00.355-.355v-.696a.355.355 0 00-.355-.355z" fill="none" stroke="#fff" stroke-width=".355" stroke-linejoin="round" stroke-miterlimit="10"/><path d="M403.392 481.459h-14.968v-4.636h14.968z" fill="#1c75b8" stroke="#fff" stroke-width=".355" stroke-linejoin="round" stroke-miterlimit="10"/><path d="M395.867 481.46h7.525v-4.637h-7.525M405.762 476.823h-19.711v-4.636h19.711z" fill="#1c75b8" stroke="#fff" stroke-width=".355" stroke-linejoin="round" stroke-miterlimit="10"/><path d="M395.853 476.823h9.909v-4.636h-9.91" fill="#1c75b8" stroke="#fff" stroke-width=".355" stroke-linejoin="round" stroke-miterlimit="10"/><path d="M408.034 490.991c0-.62-.046-1.235-.138-1.83v-.003a11.383 11.383 0 00-.32-1.47 12.059 12.059 0 00-2.617-4.757 12.189 12.189 0 00-1.568-1.472h-14.968a12.18 12.18 0 00-1.566 1.471 12.045 12.045 0 00-2.62 4.757c-.134.47-.24.95-.314 1.442a11.896 11.896 0 00-.057 3.314c.086.726.237 1.434.446 2.116v.002c.287.933.683 1.816 1.175 2.64.442.737.961 1.428 1.546 2.054a12.103 12.103 0 008.874 3.856c3.51 0 6.672-1.49 8.885-3.87a12.085 12.085 0 002.681-4.593c.224-.71.385-1.447.473-2.205.06-.475.088-.96.088-1.452" fill="#1c75b8"/><path d="M408.034 490.991c0-.62-.046-1.235-.138-1.83v-.003a11.383 11.383 0 00-.32-1.47 12.059 12.059 0 00-2.617-4.757 12.189 12.189 0 00-1.568-1.472h-14.968a12.18 12.18 0 00-1.566 1.471 12.045 12.045 0 00-2.62 4.757c-.134.47-.24.95-.314 1.442a11.896 11.896 0 00-.057 3.314c.086.726.237 1.434.446 2.116v.002c.287.933.683 1.816 1.175 2.64.442.737.961 1.428 1.546 2.054a12.103 12.103 0 008.874 3.856c3.51 0 6.672-1.49 8.885-3.87a12.085 12.085 0 002.681-4.593c.224-.71.385-1.447.473-2.205.06-.475.088-.96.088-1.452z" fill="none" stroke="#fff" stroke-width=".355" stroke-linejoin="round" stroke-miterlimit="10"/><path d="M388.22 497.2h-2.733c.442.739.961 1.429 1.546 2.055z" fill="#1c75b8"/><path d="M388.22 497.2h-2.733c.442.739.961 1.429 1.546 2.055z" fill="none" stroke="#fff" stroke-width=".355" stroke-linejoin="round" stroke-miterlimit="10"/><path d="M390.786 501.64l2.566-4.44h-5.132z" fill="#1c75b8"/><path d="M390.786 501.64l2.566-4.44h-5.132z" fill="none" stroke="#fff" stroke-width=".355" stroke-linejoin="round" stroke-miterlimit="10"/><path d="M395.918 501.64l2.566-4.44h-5.132z" fill="#1c75b8"/><path d="M395.918 501.64l2.566-4.44h-5.132z" fill="none" stroke="#fff" stroke-width=".355" stroke-linejoin="round" stroke-miterlimit="10"/><path d="M401.049 501.64l2.566-4.44h-5.132z" fill="#1c75b8"/><path d="M401.049 501.64l2.566-4.44h-5.132z" fill="none" stroke="#fff" stroke-width=".355" stroke-linejoin="round" stroke-miterlimit="10"/><path d="M406.325 497.2h-2.712l1.18 2.04a12.186 12.186 0 001.532-2.04" fill="#1c75b8"/><path d="M406.325 497.2h-2.712l1.18 2.04a12.186 12.186 0 001.532-2.04z" fill="none" stroke="#fff" stroke-width=".355" stroke-linejoin="round" stroke-miterlimit="10"/><path d="M388.22 492.443h-4.354c.086.726.237 1.433.446 2.116v.002l1.343 2.322z" fill="#1c75b8"/><path d="M388.22 492.443h-4.354c.086.726.237 1.433.446 2.116v.002l1.343 2.322z" fill="none" stroke="#fff" stroke-width=".355" stroke-linejoin="round" stroke-miterlimit="10"/><path d="M390.786 496.884l2.566-4.441h-5.132z" fill="#1c75b8"/><path d="M390.786 496.884l2.566-4.441h-5.132z" fill="none" stroke="#fff" stroke-width=".355" stroke-linejoin="round" stroke-miterlimit="10"/><path d="M395.918 496.884l2.566-4.441h-5.132z" fill="#1c75b8"/><path d="M395.918 496.884l2.566-4.441h-5.132z" fill="none" stroke="#fff" stroke-width=".355" stroke-linejoin="round" stroke-miterlimit="10"/><path d="M401.049 496.884l2.566-4.441h-5.132z" fill="#1c75b8"/><path d="M401.049 496.884l2.566-4.441h-5.132z" fill="none" stroke="#fff" stroke-width=".355" stroke-linejoin="round" stroke-miterlimit="10"/><path d="M407.946 492.443h-4.333l2.568 4.44 1.292-2.237c.224-.709.385-1.446.473-2.203" fill="#1c75b8"/><path d="M407.946 492.443h-4.333l2.568 4.44 1.292-2.237c.224-.709.385-1.446.473-2.203z" fill="none" stroke="#fff" stroke-width=".355" stroke-linejoin="round" stroke-miterlimit="10"/><path d="M388.22 487.687h-3.983c-.134.469-.24.95-.314 1.442l1.732 2.998z" fill="#1c75b8"/><path d="M388.22 487.687h-3.983c-.134.469-.24.95-.314 1.442l1.732 2.998z" fill="none" stroke="#fff" stroke-width=".355" stroke-linejoin="round" stroke-miterlimit="10"/><path d="M390.786 492.127l2.566-4.44h-5.132z" fill="#1c75b8"/><path d="M390.786 492.127l2.566-4.44h-5.132z" fill="none" stroke="#fff" stroke-width=".355" stroke-linejoin="round" stroke-miterlimit="10"/><path d="M395.918 492.127l2.566-4.44h-5.132z" fill="#1c75b8"/><path d="M395.918 492.127l2.566-4.44h-5.132z" fill="none" stroke="#fff" stroke-width=".355" stroke-linejoin="round" stroke-miterlimit="10"/><path d="M401.049 492.127l2.566-4.44h-5.132z" fill="#1c75b8"/><path d="M401.049 492.127l2.566-4.44h-5.132z" fill="none" stroke="#fff" stroke-width=".355" stroke-linejoin="round" stroke-miterlimit="10"/><path d="M407.896 489.16v-.002a11.38 11.38 0 00-.32-1.47h-3.962l2.567 4.44z" fill="#1c75b8"/><path d="M407.896 489.16v-.002a11.38 11.38 0 00-.32-1.47h-3.962l2.567 4.44z" fill="none" stroke="#fff" stroke-width=".355" stroke-linejoin="round" stroke-miterlimit="10"/><path d="M388.22 482.93h-1.363a12.04 12.04 0 00-1.998 3.061l.796 1.38z" fill="#1c75b8"/><path d="M388.22 482.93h-1.363a12.04 12.04 0 00-1.998 3.061l.796 1.38z" fill="none" stroke="#fff" stroke-width=".355" stroke-linejoin="round" stroke-miterlimit="10"/><path d="M390.786 487.37l2.566-4.44h-5.132z" fill="#1c75b8"/><path d="M390.786 487.37l2.566-4.44h-5.132z" fill="none" stroke="#fff" stroke-width=".355" stroke-linejoin="round" stroke-miterlimit="10"/><path d="M395.918 487.37l2.566-4.44h-5.132z" fill="#1c75b8"/><path d="M395.918 487.37l2.566-4.44h-5.132z" fill="none" stroke="#fff" stroke-width=".355" stroke-linejoin="round" stroke-miterlimit="10"/><path d="M401.049 487.37l2.566-4.44h-5.132z" fill="#1c75b8"/><path d="M401.049 487.37l2.566-4.44h-5.132z" fill="none" stroke="#fff" stroke-width=".355" stroke-linejoin="round" stroke-miterlimit="10"/><path d="M406.964 486.015a12.036 12.036 0 00-2.006-3.084h-1.344l2.567 4.44z" fill="#1c75b8"/><path d="M406.964 486.015a12.036 12.036 0 00-2.006-3.084h-1.344l2.567 4.44z" fill="none" stroke="#fff" stroke-width=".355" stroke-linejoin="round" stroke-miterlimit="10"/><path d="M356.25 478.795h8.79" fill="#1c75b8" stroke="#fff" stroke-width=".355" stroke-linejoin="round" stroke-miterlimit="10"/><path d="M386.05 485.014c-5.99-3.42-11.98-3.42-17.97 0v-12.826h17.97z" fill="#1c75b8"/><path d="M386.05 485.014c-5.99-3.42-11.98-3.42-17.97 0v-12.826h17.97z" fill="none" stroke="#fff" stroke-width=".355" stroke-linejoin="round" stroke-miterlimit="10"/><path d="M386.05 485.014c-2.247-5.658-5.096-10.204-8.984-12.826" fill="#1c75b8" stroke="#fff" stroke-width=".355" stroke-linejoin="round" stroke-miterlimit="10"/><path d="M377.066 485.014c-5.99-3.42-11.98-3.42-17.97 0v-12.826h17.97z" fill="#1c75b8"/><path d="M377.066 485.014c-5.99-3.42-11.98-3.42-17.97 0v-12.826h17.97z" fill="none" stroke="#fff" stroke-width=".355" stroke-linejoin="round" stroke-miterlimit="10"/><path d="M377.066 485.014c-2.248-5.658-5.097-10.204-8.985-12.826" fill="#1c75b8" stroke="#fff" stroke-width=".355" stroke-linejoin="round" stroke-miterlimit="10"/><path d="M368.081 485.014c-5.99-3.42-11.98-3.42-17.97 0 .286-5.416-1.14-9.691-4.278-12.826h22.248z" fill="#1c75b8"/><path d="M368.081 485.014c-5.99-3.42-11.98-3.42-17.97 0 .286-5.416-1.14-9.691-4.278-12.826h22.248z" fill="none" stroke="#fff" stroke-width=".355" stroke-linejoin="round" stroke-miterlimit="10"/><path d="M368.081 485.014c-2.248-5.658-5.097-10.204-8.985-12.826" fill="#1c75b8" stroke="#fff" stroke-width=".355" stroke-linejoin="round" stroke-miterlimit="10"/><path d="M418.586 496.974l-11.811-24.786h23.622z" fill="#1c75b8"/><path d="M418.586 496.974l-11.811-24.786h23.622z" fill="none" stroke="#fff" stroke-width=".355" stroke-linejoin="round" stroke-miterlimit="10"/><path d="M411.127 485.157h14.919M411.127 480.986h14.919M407.18 476.816h22.813" fill="#1c75b8" stroke="#fff" stroke-width=".355" stroke-linejoin="round" stroke-miterlimit="10"/><path d="M421.692 497.675v1.977h-6.211v-1.977l-12.146-25.488h3.44l11.81 24.787 11.812-24.787h3.44z" fill="#1c75b8"/><path d="M421.692 497.675v1.977h-6.211v-1.977l-12.146-25.488h3.44l11.81 24.787 11.812-24.787h3.44z" fill="none" stroke="#fff" stroke-width=".355" stroke-linejoin="round" stroke-miterlimit="10"/><path d="M427.8 484.813l-3.402-12.625h-1.457l-4.355 15.72 2.635 6.779h1.895z" fill="#1c75b8"/><path d="M427.8 484.813l-3.402-12.625h-1.457l-4.355 15.72 2.635 6.779h1.895z" fill="none" stroke="#fff" stroke-width=".355" stroke-linejoin="round" stroke-miterlimit="10"/><path d="M421.118 496.497h1.998v-1.81h-1.998z" fill="#1c75b8" stroke="#fff" stroke-width=".355" stroke-linejoin="round" stroke-miterlimit="10"/><path d="M409.372 484.813l3.402-12.625h1.457l4.355 15.72-2.635 6.779h-1.895z" fill="#1c75b8"/><path d="M409.372 484.813l3.402-12.625h1.457l4.355 15.72-2.635 6.779h-1.895z" fill="none" stroke="#fff" stroke-width=".355" stroke-linejoin="round" stroke-miterlimit="10"/><path d="M416.054 496.497h-1.998v-1.81h1.998zM417.03 491.913h3.113M366.332 479.311h-32.013v2.804h32.013z" fill="#1c75b8" stroke="#fff" stroke-width=".355" stroke-linejoin="round" stroke-miterlimit="10"/><path d="M352.925 487.931c1.143.52 1.143 1.973 1.143 1.973h-7.483s0-1.454 1.143-1.973c0 0-9.666-4.57-13.408-5.816H366.333c-3.742 1.246-13.408 5.816-13.408 5.816" fill="#1c75b8"/><path d="M352.925 487.931c1.143.52 1.143 1.973 1.143 1.973h-7.483s0-1.454 1.143-1.973c0 0-9.666-4.57-13.408-5.816H366.333c-3.742 1.246-13.408 5.816-13.408 5.816z" fill="none" stroke="#fff" stroke-width=".355" stroke-linejoin="round" stroke-miterlimit="10"/><path d="M334.32 479.31s1.767-1.662 4.365-2.597v-4.88h23.282v4.88c2.599.935 4.366 2.597 4.366 2.597z" fill="#1c75b8"/><path d="M334.32 479.31s1.767-1.662 4.365-2.597v-4.88h23.282v4.88c2.599.935 4.366 2.597 4.366 2.597z" fill="none" stroke="#fff" stroke-width=".355" stroke-linejoin="round" stroke-miterlimit="10"/><path d="M359.733 479.311H340.92v2.804h18.813zM347.572 487.931h5.509M343.414 481.492v-2.181M345.39 481.492v-2.181M347.364 481.492v-2.181M349.339 481.492v-2.181M351.314 481.492v-2.181M353.288 481.492v-2.181M355.263 481.492v-2.181M357.238 481.492v-2.181" fill="#1c75b8" stroke="#fff" stroke-width=".355" stroke-linejoin="round" stroke-miterlimit="10"/><path d="M299.72 478.34c.03.116.05.235.05.359 0 .798-.647 1.445-1.446 1.445a1.439 1.439 0 01-1.26-.75l-.051.003a1.852 1.852 0 11.473-3.641 1.755 1.755 0 112.234 2.585" fill="#1c75b8"/><path d="M299.72 478.34c.03.116.05.235.05.359 0 .798-.647 1.445-1.446 1.445a1.439 1.439 0 01-1.26-.75l-.051.003a1.852 1.852 0 11.473-3.641 1.755 1.755 0 112.234 2.585z" fill="none" stroke="#fff" stroke-width=".355" stroke-linejoin="round" stroke-miterlimit="10"/><path d="M298.234 477.336v-5.148M304.933 472.043h-15.384v50.713h15.384z" fill="#1c75b8" stroke="#fff" stroke-width=".355" stroke-linejoin="round" stroke-miterlimit="10"/><path d="M304.933 472.043h-15.384v13.35h15.384z" fill="#1c75b8" stroke="#fff" stroke-width=".355" stroke-linejoin="round" stroke-miterlimit="10"/><path d="M302.316 525.658h-10.15c-.082 0-.104-.113-.028-.144l2.21-.902-.538-1.856h6.863l-.54 1.856 2.21.902c.077.03.055.144-.027.144" fill="#1c75b8"/><path d="M302.316 525.658h-10.15c-.082 0-.104-.113-.028-.144l2.21-.902-.538-1.856h6.863l-.54 1.856 2.21.902c.077.03.055.144-.027.144z" fill="none" stroke="#fff" stroke-width=".355" stroke-linejoin="round" stroke-miterlimit="10"/><path d="M288.951 532.033v-1.43l1.484-1.034v-1.246l1.35-1.046v-1.62h10.912v1.62l1.35 1.046v1.246l1.484 1.034v1.43z" fill="#1c75b8"/><path d="M288.951 532.033v-1.43l1.484-1.034v-1.246l1.35-1.046v-1.62h10.912v1.62l1.35 1.046v1.246l1.484 1.034v1.43z" fill="none" stroke="#fff" stroke-width=".355" stroke-linejoin="round" stroke-miterlimit="10"/><path d="M301.312 532.033h-8.142v2.076h8.142zM288.951 530.603h16.58M290.435 529.569h13.611M290.435 528.322h13.611M291.785 527.276h10.912" fill="#1c75b8" stroke="#fff" stroke-width=".355" stroke-linejoin="round" stroke-miterlimit="10"/><path d="M297.241 534.109v12.317M296.341 537.6h1.8" fill="#1c75b8" stroke="#231f20" stroke-width=".355" stroke-linejoin="round" stroke-miterlimit="10"/><path d="M291.515 520.9h11.452M291.515 519.544h11.452M291.515 518.188h11.452M291.515 516.831h11.452M291.515 515.474h11.452M291.515 514.118h11.452M291.515 512.761h11.452M291.515 511.404h11.452M291.515 510.048h11.452M291.515 508.691h11.452M291.515 507.335h11.452M291.515 505.978h11.452M291.515 504.621h11.452M291.515 503.265h11.452M291.515 501.908h11.452M291.515 500.551h11.452M291.515 499.195h11.452M291.515 497.838h11.452M291.515 496.481h11.452M291.515 495.125h11.452M291.515 493.768h11.452M291.515 492.412h11.452M291.515 491.055h11.452M291.515 489.698h11.452M291.515 488.342h11.452M291.393 484.481v-10.519M292.563 484.481v-10.519M293.732 484.481v-10.519M294.902 484.481v-10.519M296.072 484.481v-10.519M297.241 484.481v-10.519M298.41 484.481v-10.519M299.58 484.481v-10.519M300.75 484.481v-10.519M301.92 484.481v-10.519M303.09 484.481v-10.519M444.649 480.128h-7.887v32.985h7.887z" fill="#1c75b8" stroke="#fff" stroke-width=".355" stroke-linejoin="round" stroke-miterlimit="10"/><path d="M432.089 480.128h4.674v32.985h-4.674zM444.649 480.128h4.674v32.985h-4.674z" fill="#1c75b8" stroke="#fff" stroke-width=".355" stroke-linejoin="round" stroke-miterlimit="10"/><path d="M449.323 513.113H432.09l-.546 1.191a1.073 1.073 0 00.976 1.519h16.374c.781 0 1.301-.808.976-1.519z" fill="#1c75b8"/><path d="M449.323 513.113H432.09l-.546 1.191a1.073 1.073 0 00.976 1.519h16.374c.781 0 1.301-.808.976-1.519z" fill="none" stroke="#fff" stroke-width=".355" stroke-linejoin="round" stroke-miterlimit="10"/><path d="M449.323 472.101h-17.234v8.027h17.234zM444.649 507.129h-7.887v3.503h7.887zM438.807 510.632v-3.503M442.605 510.632v-3.503M444.649 501.601h-7.887v3.503h7.887zM438.807 505.104V501.6M442.605 505.104V501.6M444.649 496.073h-7.887v3.503h7.887zM438.807 499.575v-3.503M442.605 499.575v-3.503M444.649 490.544h-7.887v3.503h7.887zM438.807 494.047v-3.503M442.605 494.047v-3.503M444.649 485.016h-7.887v3.503h7.887zM438.807 488.519v-3.503M442.605 488.519v-3.503" fill="#1c75b8" stroke="#fff" stroke-width=".355" stroke-linejoin="round" stroke-miterlimit="10"/><path d="M436.417 480.128l.69-1.638h7.197l.69 1.638z" fill="#1c75b8"/><path d="M436.417 480.128l.69-1.638h7.197l.69 1.638z" fill="none" stroke="#fff" stroke-width=".355" stroke-linejoin="round" stroke-miterlimit="10"/><path d="M444.304 476.115h-7.196v2.376h7.196zM438.462 472.101h-1.354v4.014h1.354zM444.304 472.101h-1.354v4.014h1.354zM435.7 510.632v-3.503M434.426 510.632v-3.503M433.152 510.632v-3.503M435.7 505.104V501.6M434.426 505.104V501.6M433.152 505.104V501.6M435.7 499.575v-3.503M434.426 499.575v-3.503M433.152 499.575v-3.503M435.7 494.047v-3.503M434.426 494.047v-3.503M433.152 494.047v-3.503M435.7 488.519v-3.503M434.426 488.519v-3.503M433.152 488.519v-3.503M448.26 510.632v-3.503M446.986 510.632v-3.503M445.712 510.632v-3.503M448.26 505.104V501.6M446.986 505.104V501.6M445.712 505.104V501.6M448.26 499.575v-3.503M446.986 499.575v-3.503M445.712 499.575v-3.503M448.26 494.047v-3.503M446.986 494.047v-3.503M445.712 494.047v-3.503M448.26 488.519v-3.503M446.986 488.519v-3.503M445.712 488.519v-3.503" fill="#1c75b8" stroke="#fff" stroke-width=".355" stroke-linejoin="round" stroke-miterlimit="10"/></g><g aria-label="JUNE 18-22, 2023" style="-inkscape-font-specification:DINAlternate-Bold" font-weight="700" font-size="17.304" font-family="DIN Alternate" fill="#414042"><path d="M5.377 34.884l-1.358.984q.954 1.404 2.892 1.45 1.403-.015 2.464-.954 1.068-.915 1.098-2.593v-7.667H8.787v7.499q0 .564-.175.938-.168.39-.466.626-.61.48-1.281.465-.504 0-.877-.237-.374-.198-.61-.51zM12.488 33.458q.015 1.754 1.16 2.784 1.12 1.06 2.792 1.076 1.7-.015 2.815-1.076 1.106-1.03 1.136-2.784v-7.354h-1.686v7.17q-.015 1.137-.64 1.732-.641.626-1.625.626-.985 0-1.61-.626-.64-.595-.656-1.731v-7.171h-1.686zM22.537 37.226h1.686v-7.903h.03l5.028 7.903h1.594V26.104H29.19v7.903h-.03l-5.035-7.903h-1.587zM33.223 37.226h7.103v-1.594h-5.417v-3.265h4.623v-1.495H34.91v-3.174h5.417v-1.594h-7.103zM47.514 27.79v9.436h1.594V26.104h-1.594l-1.58 1.152v1.693l1.58-1.16zM54.143 29.193q.016-.793.496-1.197.473-.39 1.091-.39.641 0 1.114.39.465.404.48 1.197-.015.77-.48 1.175-.473.42-1.114.42-.618 0-1.09-.42-.481-.404-.497-1.175zm-1.8 4.783q.015 1.503 1.015 2.404.953.923 2.372.938 1.427-.015 2.41-.938.97-.9.985-2.404-.015-1.61-1.312-2.502.496-.435.809-1 .297-.525.297-1.25-.015-1.389-.908-2.296-.885-.9-2.28-.916-1.374.015-2.244.916-.923.907-.938 2.296 0 .725.328 1.25.282.565.778 1-1.297.893-1.312 2.502zm1.594-.015q.016-.778.55-1.266.51-.48 1.243-.496.755.015 1.267.496.518.488.534 1.266-.016.763-.534 1.251-.512.511-1.267.511-.732 0-1.243-.51-.534-.489-.55-1.252zM60.315 33.694h4.7V32.1h-4.7zM66.346 37.226h6.34v-1.594h-4.25l3.578-4.486q.672-.854.672-1.953-.016-1.373-.923-2.265-.893-.9-2.327-.916-1.282.015-2.16.9-.869.908-.93 2.297h1.587q.084-.763.534-1.183.435-.42 1.09-.42.74.016 1.145.481.39.465.39 1.091 0 .236-.062.503-.091.283-.343.61l-4.34 5.432zM73.846 37.226h6.34v-1.594h-4.25l3.578-4.486q.671-.854.671-1.953-.015-1.373-.923-2.265-.893-.9-2.327-.916-1.281.015-2.159.9-.87.908-.93 2.297h1.586q.084-.763.534-1.183.435-.42 1.091-.42.74.016 1.145.481.389.465.389 1.091 0 .236-.061.503-.092.283-.344.61l-4.34 5.432zM81.917 38.386l1.595-1.16v-1.594h-1.595zM88.844 37.226h6.34v-1.594h-4.25l3.579-4.486q.67-.854.67-1.953-.014-1.373-.922-2.265-.893-.9-2.327-.916-1.282.015-2.159.9-.87.908-.93 2.297h1.586q.084-.763.534-1.183.435-.42 1.091-.42.74.016 1.144.481.39.465.39 1.091 0 .236-.062.503-.091.283-.343.61l-4.34 5.432zM101.15 34.022q-.046 1.686-1.564 1.701-1.526-.015-1.556-1.7v-4.715q.03-1.671 1.556-1.702 1.518.031 1.564 1.702zm-4.715.092q.016 1.533.984 2.365.908.824 2.167.839 1.297-.015 2.205-.84.923-.83.953-2.364v-4.905q-.03-1.541-.953-2.373-.908-.824-2.205-.824-1.259 0-2.167.824-.968.832-.984 2.373zM103.843 37.226h6.34v-1.594h-4.25l3.578-4.486q.672-.854.672-1.953-.016-1.373-.923-2.265-.893-.9-2.327-.916-1.282.015-2.16.9-.869.908-.93 2.297h1.587q.084-.763.534-1.183.435-.42 1.09-.42.74.016 1.145.481.39.465.39 1.091 0 .236-.062.503-.091.283-.343.61l-4.34 5.432zM113.585 32.199h.672q.74 0 1.22.45.489.465.504 1.312-.015.832-.504 1.282-.48.48-1.182.48-.656 0-1.053-.358-.389-.343-.603-.9h-1.594q.26 1.388 1.137 2.12.877.733 2.014.733 1.472-.015 2.41-.938.954-.9.97-2.465 0-.701-.298-1.342-.313-.641-1.015-1.099.687-.465.954-1.06.229-.595.229-1.236-.016-1.266-.87-2.197-.893-.954-2.41-.969-1.199.015-2.06.854-.878.847-1 2.083h1.594q.153-.686.596-1.014.42-.329.93-.329.71.016 1.16.45.45.45.465 1.153 0 .694-.45 1.129-.45.45-1.266.45h-.55z"/></g></svg>